<svg width="143" height="41" viewBox="0 0 143 41" fill="none" xmlns="http://www.w3.org/2000/svg">
<rect width="41" height="41" rx="20.5" fill="#00009B"/>
<path d="M21.0286 10C22.1536 10.003 22.7246 10.009 23.2176 10.023L23.4116 10.03C23.6356 10.038 23.8566 10.048 24.1236 10.06C25.1876 10.11 25.9136 10.278 26.5506 10.525C27.2106 10.779 27.7666 11.123 28.3226 11.678C28.8313 12.1777 29.2248 12.7825 29.4756 13.45C29.7226 14.087 29.8906 14.813 29.9406 15.878C29.9526 16.144 29.9626 16.365 29.9706 16.59L29.9766 16.784C29.9916 17.276 29.9976 17.847 29.9996 18.972L30.0006 19.718V21.028C30.003 21.7574 29.9953 22.4868 29.9776 23.216L29.9716 23.41C29.9636 23.635 29.9536 23.856 29.9416 24.122C29.8916 25.187 29.7216 25.912 29.4756 26.55C29.2248 27.2175 28.8313 27.8223 28.3226 28.322C27.8228 28.8307 27.2181 29.2242 26.5506 29.475C25.9136 29.722 25.1876 29.89 24.1236 29.94L23.4116 29.97L23.2176 29.976C22.7246 29.99 22.1536 29.997 21.0286 29.999L20.2826 30H18.9736C18.2438 30.0026 17.5141 29.9949 16.7846 29.977L16.5906 29.971C16.3532 29.962 16.1158 29.9517 15.8786 29.94C14.8146 29.89 14.0886 29.722 13.4506 29.475C12.7834 29.2241 12.179 28.8306 11.6796 28.322C11.1705 27.8224 10.7767 27.2176 10.5256 26.55C10.2786 25.913 10.1106 25.187 10.0606 24.122L10.0306 23.41L10.0256 23.216C10.0071 22.4868 9.9988 21.7574 10.0006 21.028V18.972C9.9978 18.2426 10.0051 17.5132 10.0226 16.784L10.0296 16.59C10.0376 16.365 10.0476 16.144 10.0596 15.878C10.1096 14.813 10.2776 14.088 10.5246 13.45C10.7763 12.7822 11.1708 12.1774 11.6806 11.678C12.1797 11.1695 12.7838 10.7761 13.4506 10.525C14.0886 10.278 14.8136 10.11 15.8786 10.06C16.1446 10.048 16.3666 10.038 16.5906 10.03L16.7846 10.024C17.5138 10.0062 18.2432 9.99857 18.9726 10.001L21.0286 10ZM20.0006 15C18.6745 15 17.4027 15.5268 16.465 16.4645C15.5274 17.4021 15.0006 18.6739 15.0006 20C15.0006 21.3261 15.5274 22.5979 16.465 23.5355C17.4027 24.4732 18.6745 25 20.0006 25C21.3267 25 22.5984 24.4732 23.5361 23.5355C24.4738 22.5979 25.0006 21.3261 25.0006 20C25.0006 18.6739 24.4738 17.4021 23.5361 16.4645C22.5984 15.5268 21.3267 15 20.0006 15ZM20.0006 17C20.3945 16.9999 20.7847 17.0775 21.1487 17.2282C21.5127 17.3789 21.8434 17.5998 22.122 17.8783C22.4007 18.1569 22.6217 18.4875 22.7725 18.8515C22.9233 19.2154 23.001 19.6055 23.0011 19.9995C23.0011 20.3935 22.9236 20.7836 22.7729 21.1476C22.6222 21.5116 22.4013 21.8423 22.1227 22.121C21.8442 22.3996 21.5135 22.6206 21.1496 22.7714C20.7856 22.9223 20.3955 22.9999 20.0016 23C19.2059 23 18.4429 22.6839 17.8802 22.1213C17.3176 21.5587 17.0016 20.7956 17.0016 20C17.0016 19.2044 17.3176 18.4413 17.8802 17.8787C18.4429 17.3161 19.2059 17 20.0016 17M25.2516 13.5C24.92 13.5 24.6021 13.6317 24.3677 13.8661C24.1333 14.1005 24.0016 14.4185 24.0016 14.75C24.0016 15.0815 24.1333 15.3995 24.3677 15.6339C24.6021 15.8683 24.92 16 25.2516 16C25.5831 16 25.901 15.8683 26.1355 15.6339C26.3699 15.3995 26.5016 15.0815 26.5016 14.75C26.5016 14.4185 26.3699 14.1005 26.1355 13.8661C25.901 13.6317 25.5831 13.5 25.2516 13.5Z" fill="white"/>
<rect x="51" width="41" height="41" rx="20.5" fill="#00009B"/>
<path d="M69 23L74.19 20L69 17V23ZM80.56 15.17C80.69 15.64 80.78 16.27 80.84 17.07C80.91 17.87 80.94 18.56 80.94 19.16L81 20C81 22.19 80.84 23.8 80.56 24.83C80.31 25.73 79.73 26.31 78.83 26.56C78.36 26.69 77.5 26.78 76.18 26.84C74.88 26.91 73.69 26.94 72.59 26.94L71 27C66.81 27 64.2 26.84 63.17 26.56C62.27 26.31 61.69 25.73 61.44 24.83C61.31 24.36 61.22 23.73 61.16 22.93C61.09 22.13 61.06 21.44 61.06 20.84L61 20C61 17.81 61.16 16.2 61.44 15.17C61.69 14.27 62.27 13.69 63.17 13.44C63.64 13.31 64.5 13.22 65.82 13.16C67.12 13.09 68.31 13.06 69.41 13.06L71 13C75.19 13 77.8 13.16 78.83 13.44C79.73 13.69 80.31 14.27 80.56 15.17Z" fill="white"/>
<rect x="102" width="41" height="41" rx="20.5" fill="#00009B"/>
<path d="M129 11.5C129.53 11.5 130.039 11.7107 130.414 12.0858C130.789 12.4609 131 12.9696 131 13.5V27.5C131 28.0304 130.789 28.5391 130.414 28.9142C130.039 29.2893 129.53 29.5 129 29.5H115C114.47 29.5 113.961 29.2893 113.586 28.9142C113.211 28.5391 113 28.0304 113 27.5V13.5C113 12.9696 113.211 12.4609 113.586 12.0858C113.961 11.7107 114.47 11.5 115 11.5H129ZM128.5 27V21.7C128.5 20.8354 128.157 20.0062 127.545 19.3948C126.934 18.7835 126.105 18.44 125.24 18.44C124.39 18.44 123.4 18.96 122.92 19.74V18.63H120.13V27H122.92V22.07C122.92 21.3 123.54 20.67 124.31 20.67C124.681 20.67 125.037 20.8175 125.3 21.0801C125.563 21.3426 125.71 21.6987 125.71 22.07V27H128.5ZM116.88 17.06C117.326 17.06 117.753 16.883 118.068 16.5679C118.383 16.2529 118.56 15.8256 118.56 15.38C118.56 14.45 117.81 13.69 116.88 13.69C116.432 13.69 116.002 13.8681 115.685 14.185C115.368 14.5019 115.19 14.9318 115.19 15.38C115.19 16.31 115.95 17.06 116.88 17.06ZM118.27 27V18.63H115.5V27H118.27Z" fill="white"/>
</svg>
