<svg width="77" height="73" viewBox="0 0 77 73" fill="none" xmlns="http://www.w3.org/2000/svg">
<path d="M64.4404 59.3885C63.2091 60 61.8585 60.3788 60.4261 60.5147C60.1186 60.5439 59.8371 60.6915 59.6474 60.923C59.4578 61.1546 59.3769 61.4497 59.4233 61.7396C59.4883 62.1435 59.5184 62.4764 59.5184 62.7872C59.5184 67.2394 55.0571 70.8613 49.5732 70.8613C45.5784 70.8613 41.9843 68.9301 40.4168 65.9411C40.2385 65.6012 39.9631 65.3266 39.6279 65.1375V51.6258C39.7136 51.623 39.7992 51.6201 39.8867 51.6173C42.0908 51.5431 44.8324 51.4499 46.3597 52.847C47.1459 53.5662 47.6038 54.6884 47.7287 56.187C46.4331 56.6376 45.506 57.8178 45.506 59.1993C45.506 60.9679 47.0254 62.407 48.8928 62.407C50.7602 62.407 52.2796 60.9679 52.2796 59.1993C52.2796 57.794 51.3201 56.5978 49.9895 56.1652C49.84 54.0572 49.1481 52.4257 47.9263 51.3079C45.7094 49.2798 42.2976 49.3956 39.8064 49.4799C39.7461 49.4819 39.6874 49.4839 39.628 49.4859V42.7633C51.1338 42.7854 56.9413 43.2325 57.4442 49.1097C56.1487 49.5604 55.2219 50.7405 55.2219 52.122C55.2219 53.8907 56.7413 55.3297 58.6087 55.3297C60.4761 55.3297 61.9955 53.8907 61.9955 52.122C61.9955 50.716 61.0351 49.5195 59.7034 49.0873C59.4253 45.2968 57.334 42.8775 53.331 41.7075C49.8587 40.6926 45.1177 40.628 39.628 40.624V33.9427C45.1177 33.9386 49.8587 33.8741 53.331 32.8592C57.334 31.6892 59.4253 29.27 59.7034 25.4794C61.0351 25.0472 61.9955 23.8506 61.9955 22.4446C61.9955 20.6759 60.4761 19.237 58.6087 19.237C56.7413 19.237 55.2219 20.6759 55.2219 22.4446C55.2219 23.8261 56.1487 25.0063 57.4442 25.457C56.9413 31.3342 51.1338 31.7814 39.628 31.8035V25.2932C39.6874 25.2952 39.7459 25.297 39.8064 25.2992C40.3343 25.317 40.9033 25.3364 41.4936 25.3364C43.6898 25.3364 46.179 25.0695 47.9263 23.4712C49.1482 22.3535 49.84 20.7219 49.9895 18.614C51.3201 18.1813 52.2796 16.985 52.2796 15.5798C52.2796 13.8111 50.7602 12.3722 48.8928 12.3722C47.0254 12.3722 45.506 13.8111 45.506 15.5798C45.506 16.9612 46.4329 18.1416 47.7287 18.5922C47.6038 20.0908 47.1459 21.213 46.3597 21.9321C44.8324 23.3292 42.0899 23.2358 39.8868 23.1618C39.7993 23.1588 39.7138 23.1559 39.6279 23.1532V18.5203C39.6279 17.9296 39.123 17.451 38.5 17.451C37.8769 17.451 37.372 17.9296 37.372 18.5203V65.1378C37.0368 65.3268 36.7613 65.6016 36.5829 65.9416C35.0156 68.9301 31.4215 70.8613 27.4267 70.8613C21.9428 70.8613 17.4815 67.2394 17.4815 62.7872C17.4815 62.4764 17.5116 62.1435 17.5766 61.7396C17.5791 61.7219 17.8531 59.9497 19.1387 58.774C19.587 58.364 19.5998 57.6871 19.1672 57.2621C18.7347 56.8372 18.0205 56.8246 17.5725 57.235C16.465 58.2478 15.8916 59.5044 15.6057 60.3795C12.9797 59.9076 10.6432 58.5655 9.23048 56.6785C8.86999 56.1973 8.16571 56.0838 7.65769 56.4256C7.14982 56.7675 7.03026 57.435 7.3909 57.9166C9.17453 60.2987 11.9904 61.9311 15.2321 62.4935C15.2281 62.5928 15.2259 62.6904 15.2259 62.7875C15.2259 68.4188 20.6994 73.0003 27.427 73.0003C32.1872 73.0003 36.5062 70.6852 38.5003 67.0848C40.4941 70.6851 44.813 73 49.5732 73C56.3008 73 61.7742 68.4185 61.7742 62.7872C61.7742 62.6902 61.7721 62.5926 61.7681 62.4933C63.0783 62.2654 64.3252 61.8601 65.4872 61.2829C66.039 61.0089 66.252 60.3626 65.9629 59.8394C65.6739 59.3162 64.9925 59.1143 64.4404 59.3885ZM48.8927 58.1305C49.5162 58.1305 50.0236 58.61 50.0236 59.1994C50.0236 59.789 49.5164 60.2685 48.8927 60.2685C48.269 60.2685 47.7618 59.789 47.7618 59.1994C47.7619 58.61 48.2692 58.1305 48.8927 58.1305ZM58.6085 51.0531C59.232 51.0531 59.7395 51.5326 59.7395 52.122C59.7395 52.7115 59.2322 53.191 58.6085 53.191C57.9849 53.191 57.4776 52.7115 57.4776 52.122C57.4776 51.5327 57.985 51.0531 58.6085 51.0531ZM58.6085 21.3757C59.232 21.3757 59.7395 21.8552 59.7395 22.4446C59.7395 23.0342 59.2322 23.5137 58.6085 23.5137C57.9849 23.5137 57.4776 23.0342 57.4776 22.4446C57.4776 21.8552 57.985 21.3757 58.6085 21.3757ZM48.8927 14.5106C49.5162 14.5106 50.0236 14.9901 50.0236 15.5795C50.0236 16.169 49.5164 16.6485 48.8927 16.6485C48.269 16.6485 47.7618 16.169 47.7618 15.5795C47.7619 14.9902 48.2692 14.5106 48.8927 14.5106Z" fill="white"/>
<path d="M7.79249 52.501C7.79249 50.567 8.64987 48.6401 10.1449 47.2147C10.4334 46.9396 10.5422 46.5381 10.4291 46.1652C10.316 45.7925 9.99887 45.5069 9.60019 45.4193C5.276 44.467 2.25586 41.2692 2.25586 37.6429C2.25586 35.3873 3.36409 33.2438 5.37632 31.6071C5.61724 31.4114 5.75981 31.1285 5.76929 30.8278C5.77891 30.5273 5.65454 30.2367 5.42685 30.0275C4.2747 28.9693 3.64021 27.615 3.64021 26.2137C3.64021 23.0723 6.69344 20.5342 10.591 20.4359C10.6086 20.436 12.3289 20.463 13.5379 21.4767C13.7525 21.6566 14.0191 21.745 14.2847 21.745C14.5966 21.745 14.9072 21.6231 15.1301 21.3842C15.5427 20.9417 15.499 20.2659 15.0324 19.8747C13.7328 18.785 12.1201 18.4485 11.2288 18.3444C10.7923 17.5852 10.5609 16.7592 10.5609 15.9275C10.5609 14.1607 11.5465 12.5118 13.2651 11.4037C13.7801 11.0716 13.9137 10.4065 13.5633 9.91816C13.213 9.42983 12.5113 9.30308 11.9964 9.63543C9.65027 11.148 8.30487 13.4416 8.30487 15.9277C8.30487 16.7951 8.47617 17.6549 8.80733 18.4723C4.52977 19.2396 1.38435 22.401 1.38435 26.214C1.38435 27.8422 1.97493 29.413 3.06692 30.7331C1.08101 32.6745 0 35.0926 0 37.6429C0 41.7628 2.9639 45.429 7.3923 47.0147C6.1991 48.6335 5.53663 50.5616 5.53663 52.501C5.53663 53.0917 6.04149 53.5703 6.66456 53.5703C7.28763 53.5703 7.79249 53.0915 7.79249 52.501Z" fill="white"/>
<path d="M77.0005 37.6429C77.0005 35.0923 75.9196 32.6742 73.9334 30.7329C75.0254 29.4126 75.616 27.8418 75.616 26.2137C75.616 22.4007 72.4704 19.2394 68.1928 18.472C68.5241 17.6546 68.6954 16.7947 68.6954 15.9274C68.6954 11.5565 64.4639 8.00049 59.2626 8.00049C59.1589 8.00049 59.0474 8.00277 58.931 8.00676C58.6426 5.98999 57.5321 4.10768 55.7405 2.63057C53.7225 0.966822 51.0954 0.032793 48.3429 0.000998047C48.2928 0.000285156 48.2428 0 48.1927 0C44.0918 0 40.3235 1.95774 38.5005 5.02987C36.6774 1.9576 32.9095 0 28.8082 0C28.7585 0 28.7079 0.000285156 28.658 0.000998047C25.9054 0.0329355 23.2782 0.966822 21.2603 2.63057C19.469 4.10739 18.3586 5.98956 18.0699 8.00676C17.9535 8.00277 17.8421 8.00049 17.7383 8.00049C17.1152 8.00049 16.6104 8.47912 16.6104 9.06982C16.6104 9.66052 17.1152 10.1392 17.7383 10.1392C18.083 10.1392 18.563 10.1724 18.9913 10.2258C19.3306 10.2682 19.6685 10.1634 19.9152 9.9414C20.1621 9.71926 20.29 9.40345 20.2632 9.0818L20.2564 9.0088C20.2546 8.98955 20.2522 8.97045 20.2515 8.96146C20.32 5.31588 24.1825 2.19171 28.6857 2.13924C32.0875 2.10645 35.1968 3.69634 36.6088 6.207C36.7871 6.52395 37.0531 6.78144 37.3727 6.96195V13.5833C37.3727 14.174 37.8775 14.6526 38.5006 14.6526C39.1237 14.6526 39.6285 14.174 39.6285 13.5833V6.96209C39.9481 6.78173 40.2142 6.52409 40.3924 6.20714C41.7871 3.72699 44.839 2.13867 48.1915 2.13867C48.2327 2.13867 48.274 2.13896 48.3153 2.13938C52.8184 2.19171 56.6809 5.31588 56.7495 8.9512C56.7313 8.93894 56.7174 11.0949 55.5048 12.4689C55.1051 12.9219 55.1684 13.5961 55.646 13.9751C55.857 14.1426 56.1138 14.2243 56.3693 14.2243C56.6917 14.2243 57.0117 14.094 57.2349 13.8411C58.2852 12.651 58.7122 11.1707 58.8861 10.1496C59.0216 10.1429 59.1498 10.139 59.2628 10.139C63.22 10.139 66.4397 12.7356 66.4397 15.9273C66.4397 16.9177 66.1153 17.9017 65.5017 18.7727C65.2734 19.0965 65.2491 19.5124 65.438 19.8581C65.6267 20.204 65.9989 20.4253 66.4096 20.4356C70.3072 20.534 73.3604 23.072 73.3604 26.2134C73.3604 27.6147 72.7259 28.969 71.5738 30.0272C71.5623 30.0384 70.3559 31.1767 68.7825 31.2953C68.1615 31.3421 67.6982 31.8572 67.7475 32.4461C67.7946 33.006 68.2883 33.4306 68.8708 33.4306C68.9007 33.4306 68.9309 33.4294 68.9615 33.4273C70.3905 33.3197 71.5649 32.7134 72.3068 32.2161C73.885 33.7588 74.7446 35.6571 74.7446 37.6429C74.7446 41.2694 71.7245 44.467 67.4003 45.4191C67.0017 45.5068 66.6844 45.7924 66.5713 46.1651C66.4582 46.5379 66.567 46.9396 66.8556 47.2146C68.3504 48.6401 69.208 50.5669 69.208 52.5008C69.208 53.8538 68.7864 55.192 67.9892 56.3711C67.6529 56.8681 67.8054 57.5297 68.33 57.8484C68.5184 57.963 68.7293 58.0177 68.9377 58.0177C69.3092 58.0177 69.673 57.8439 69.8882 57.5254C70.919 56.0014 71.464 54.2638 71.464 52.501C71.464 50.5618 70.8014 48.6337 69.6082 47.0147C74.0366 45.4291 77.0005 41.763 77.0005 37.6429Z" fill="white"/>
<path d="M12.7401 36.5836C12.7052 37.1733 13.1812 37.6781 13.8029 37.7112C13.8246 37.7124 13.8459 37.7129 13.8673 37.7129C14.4612 37.7129 14.9586 37.2728 14.9923 36.7036C14.9955 36.6499 15.3761 31.3203 21.0654 30.0083C21.6707 29.8687 22.042 29.2904 21.8948 28.7165C21.7476 28.1427 21.138 27.7902 20.5323 27.9302C16.7194 28.8095 14.7998 31.116 13.8608 32.8961C12.8559 34.8012 12.7443 36.5117 12.7401 36.5836Z" fill="white"/>
<path d="M30.2065 11.8518C29.5896 11.7969 29.0363 12.2279 28.9776 12.8161C28.6436 16.1721 24.9779 17.4576 24.8172 17.5122C24.2315 17.7088 23.9236 18.3176 24.1292 18.8739C24.2919 19.3144 24.7278 19.5898 25.1937 19.5898C25.3173 19.5898 25.4433 19.5703 25.5666 19.5294C25.7781 19.4591 30.7521 17.7538 31.2234 13.0168C31.2819 12.4288 30.8267 11.9073 30.2065 11.8518Z" fill="white"/>
<path d="M29.2982 59.5034C29.4547 59.574 29.6197 59.6073 29.7821 59.6073C30.2037 59.6073 30.6081 59.3822 30.8013 58.9972C31.0689 58.464 30.8299 57.8258 30.2675 57.5722C25.9267 55.6141 26.2982 50.9591 26.3165 50.7575C26.3725 50.1709 25.9174 49.6514 25.2983 49.5963C24.6792 49.5433 24.1281 49.9733 24.07 50.5615C24.0449 50.8188 23.5142 56.8942 29.2982 59.5034Z" fill="white"/>
<path d="M26.6261 39.6554C26.0635 39.9091 25.8245 40.5471 26.092 41.0803C26.2851 41.4655 26.6897 41.6906 27.1112 41.6906C27.2737 41.6906 27.4386 41.6572 27.5951 41.5866C31.2467 39.9396 30.9127 36.1131 30.8966 35.9511C30.8384 35.363 30.2867 34.933 29.6683 34.986C29.0481 35.0412 28.5924 35.5624 28.6503 36.1504C28.6529 36.1752 28.8698 38.6433 26.6261 39.6554Z" fill="white"/>
</svg>
