<svg width="71" height="47" viewBox="0 0 71 47" fill="none" xmlns="http://www.w3.org/2000/svg">
<path d="M40.5759 19.2755C43.6767 17.4909 45.765 14.1497 45.765 10.3275C45.765 4.63219 41.1328 0 35.4375 0C29.7421 0 25.11 4.63219 25.11 10.3275C25.11 14.1497 27.1982 17.4909 30.299 19.2755C24.629 21.1106 19.9336 26.0845 19.6045 34.2098V43.6008C19.6045 45.1322 20.8448 46.3725 22.3762 46.3725H48.4987C50.0301 46.3725 51.2704 45.1322 51.2704 43.6008V34.2098C50.9414 26.0845 46.2459 21.1106 40.5759 19.2755ZM27.3881 10.3275C27.3881 5.89781 30.9951 2.29078 35.4248 2.29078C39.8545 2.29078 43.4615 5.89781 43.4615 10.3275C43.4615 14.7572 39.8671 18.3642 35.4375 18.3642C31.0078 18.3642 27.3881 14.7572 27.3881 10.3275ZM48.9923 43.6008C48.9923 43.8666 48.7771 44.0944 48.4987 44.0944H22.3762C22.1104 44.0944 21.8826 43.8792 21.8826 43.6008V34.2098C21.8826 26.73 27.9576 20.655 35.4375 20.655C42.9173 20.655 48.9923 26.73 48.9923 34.2098V43.6008Z" fill="white"/>
<path d="M20.2627 23.3887C20.7689 22.3256 19.6805 21.5662 18.2123 21.0473C20.6044 19.4779 22.1991 16.7695 22.1991 13.694C22.1991 8.8467 18.2503 4.89795 13.403 4.89795C8.55562 4.89795 4.60687 8.8467 4.60687 13.694C4.60687 16.7948 6.22688 19.5159 8.65688 21.0853C3.59438 23.009 0 27.8817 0 33.6023V41.4239C0 42.8034 1.12641 43.9298 2.50594 43.9298H15.6684C17.1619 43.9298 17.1619 41.639 15.6684 41.639H2.50594C2.39203 41.639 2.29078 41.5378 2.29078 41.4239V33.6023C2.29078 27.4894 7.23937 22.5155 13.3397 22.4901H13.3903H13.4283C15.2634 22.5028 17.0859 22.9584 18.7059 23.8444C19.2628 24.1481 19.9589 23.9456 20.2627 23.3887ZM13.4409 20.1994C13.4283 20.1994 13.403 20.1994 13.3903 20.1994C13.3777 20.1994 13.365 20.1994 13.365 20.1994C9.79594 20.1867 6.885 17.2758 6.885 13.694C6.885 10.0997 9.80859 7.17608 13.403 7.17608C16.9973 7.17608 19.9083 10.0997 19.9083 13.694C19.9083 17.2758 17.01 20.174 13.4409 20.1994Z" fill="white"/>
<path d="M70.8749 33.6023C70.9888 27.7425 67.1286 23.0344 62.18 21.1233C64.648 19.5665 66.2807 16.8201 66.2807 13.694C66.2807 8.8467 62.3319 4.89795 57.4846 4.89795C52.6372 4.89795 48.6885 8.8467 48.6885 13.694C48.6885 16.7822 50.2832 19.4906 52.7005 21.06C52.1563 21.2751 51.6121 21.5283 51.0805 21.832C49.7643 22.5534 50.8653 24.5531 52.1816 23.8317C56.3961 21.4776 61.9775 22.2623 65.3568 25.7301C67.445 27.8184 68.6094 30.6155 68.6094 33.5897V41.4112C68.6094 41.5251 68.5082 41.6264 68.3943 41.6264H55.2318C53.7383 41.639 53.7383 43.9045 55.2318 43.9172H68.3943C69.7738 43.9172 70.9002 42.7908 70.9002 41.4112C70.8749 41.4239 70.8749 33.6023 70.8749 33.6023ZM57.5479 20.1994C57.5099 20.1994 57.4846 20.1994 57.4466 20.1994C53.8775 20.174 50.9793 17.2631 50.9793 13.694C50.9793 10.0997 53.9028 7.17608 57.4846 7.17608C61.0789 7.17608 64.0025 10.0997 64.0025 13.694C63.9899 17.2631 61.1043 20.1614 57.5479 20.1994Z" fill="white"/>
</svg>
