<svg width="42" height="42" viewBox="0 0 42 42" fill="none" xmlns="http://www.w3.org/2000/svg">
<rect x="0.790527" y="0.209473" width="41" height="41" rx="20.5" fill="#00009B"/>
<path d="M21.8191 10.2095C22.9441 10.2125 23.5151 10.2185 24.0081 10.2325L24.2021 10.2395C24.4261 10.2475 24.6471 10.2575 24.9141 10.2695C25.9781 10.3195 26.7041 10.4875 27.3411 10.7345C28.0011 10.9885 28.5571 11.3325 29.1131 11.8875C29.6218 12.3872 30.0153 12.9919 30.2661 13.6595C30.5131 14.2965 30.6811 15.0225 30.7311 16.0875C30.7431 16.3535 30.7531 16.5745 30.7611 16.7995L30.7671 16.9935C30.7821 17.4855 30.7881 18.0565 30.7901 19.1815L30.7911 19.9275V21.2375C30.7935 21.9669 30.7859 22.6963 30.7681 23.4255L30.7621 23.6195C30.7541 23.8445 30.7441 24.0655 30.7321 24.3315C30.6821 25.3965 30.5121 26.1215 30.2661 26.7595C30.0153 27.427 29.6218 28.0317 29.1131 28.5315C28.6134 29.0402 28.0086 29.4337 27.3411 29.6845C26.7041 29.9315 25.9781 30.0995 24.9141 30.1495L24.2021 30.1795L24.0081 30.1855C23.5151 30.1995 22.9441 30.2065 21.8191 30.2085L21.0731 30.2095H19.7641C19.0344 30.212 18.3046 30.2044 17.5751 30.1865L17.3811 30.1805C17.1437 30.1715 16.9064 30.1611 16.6691 30.1495C15.6051 30.0995 14.8791 29.9315 14.2411 29.6845C13.5739 29.4335 12.9695 29.04 12.4701 28.5315C11.961 28.0318 11.5672 27.4271 11.3161 26.7595C11.0691 26.1225 10.9011 25.3965 10.8511 24.3315L10.8211 23.6195L10.8161 23.4255C10.7977 22.6963 10.7893 21.9669 10.7911 21.2375V19.1815C10.7883 18.4521 10.7957 17.7227 10.8131 16.9935L10.8201 16.7995C10.8281 16.5745 10.8381 16.3535 10.8501 16.0875C10.9001 15.0225 11.0681 14.2975 11.3151 13.6595C11.5668 12.9917 11.9613 12.3869 12.4711 11.8875C12.9702 11.379 13.5743 10.9855 14.2411 10.7345C14.8791 10.4875 15.6041 10.3195 16.6691 10.2695C16.9351 10.2575 17.1571 10.2475 17.3811 10.2395L17.5751 10.2335C18.3043 10.2157 19.0337 10.208 19.7631 10.2105L21.8191 10.2095ZM20.7911 15.2095C19.465 15.2095 18.1932 15.7363 17.2556 16.6739C16.3179 17.6116 15.7911 18.8834 15.7911 20.2095C15.7911 21.5356 16.3179 22.8073 17.2556 23.745C18.1932 24.6827 19.465 25.2095 20.7911 25.2095C22.1172 25.2095 23.3889 24.6827 24.3266 23.745C25.2643 22.8073 25.7911 21.5356 25.7911 20.2095C25.7911 18.8834 25.2643 17.6116 24.3266 16.6739C23.3889 15.7363 22.1172 15.2095 20.7911 15.2095ZM20.7911 17.2095C21.1851 17.2094 21.5752 17.2869 21.9392 17.4376C22.3032 17.5883 22.6339 17.8093 22.9126 18.0878C23.1912 18.3663 23.4122 18.697 23.563 19.061C23.7139 19.4249 23.7915 19.815 23.7916 20.209C23.7917 20.6029 23.7141 20.9931 23.5634 21.3571C23.4127 21.7211 23.1918 22.0518 22.9133 22.3304C22.6347 22.6091 22.3041 22.8301 21.9401 22.9809C21.5762 23.1317 21.1861 23.2094 20.7921 23.2095C19.9964 23.2095 19.2334 22.8934 18.6708 22.3308C18.1082 21.7682 17.7921 21.0051 17.7921 20.2095C17.7921 19.4138 18.1082 18.6508 18.6708 18.0882C19.2334 17.5255 19.9964 17.2095 20.7921 17.2095M26.0421 13.7095C25.7106 13.7095 25.3926 13.8412 25.1582 14.0756C24.9238 14.31 24.7921 14.628 24.7921 14.9595C24.7921 15.291 24.9238 15.6089 25.1582 15.8434C25.3926 16.0778 25.7106 16.2095 26.0421 16.2095C26.3736 16.2095 26.6916 16.0778 26.926 15.8434C27.1604 15.6089 27.2921 15.291 27.2921 14.9595C27.2921 14.628 27.1604 14.31 26.926 14.0756C26.6916 13.8412 26.3736 13.7095 26.0421 13.7095Z" fill="white"/>
</svg>
