<svg width="79" height="79" viewBox="0 0 79 79" fill="none" xmlns="http://www.w3.org/2000/svg">
<g clip-path="url(#clip0_572_2614)">
<path d="M79 26.9882C79 20.74 76.5668 14.8661 72.1485 10.4487C70.4009 8.70112 68.4048 7.24996 66.2156 6.13593C65.6461 5.84601 64.9493 6.07283 64.6594 6.64234C64.3695 7.212 64.5963 7.90865 65.1658 8.19857C67.1379 9.20228 68.9365 10.5099 70.512 12.0853C74.493 16.0657 76.6856 21.3582 76.6856 26.9882C76.6856 32.4763 74.6024 37.644 70.8098 41.5886C70.5282 41.1303 70.1649 40.6824 69.8354 40.3528L48.1777 18.6969C47.7219 18.241 46.9888 18.249 46.5409 18.6971C46.2113 19.027 39.2359 26.0035 38.7574 26.4821C37.0446 28.1954 34.253 28.2032 32.532 26.4821C30.8117 24.7619 30.8195 21.9691 32.532 20.2566L32.5328 20.2558C32.9983 19.7903 39.0336 13.7562 40.7049 12.0852C46.0242 6.76593 53.8455 4.67953 61.117 6.64049C61.7339 6.80713 62.3693 6.44144 62.5356 5.82441C62.7021 5.20738 62.3368 4.57229 61.7196 4.4058C53.8455 2.28237 45.3905 4.43821 39.5008 10.0302C30.3501 1.3302 15.828 1.46938 6.84913 10.4482C3.93971 13.3576 1.84467 16.9855 0.790358 20.9393C-0.232168 24.7741 -0.263027 28.8366 0.700711 32.688C0.855934 33.3081 1.48438 33.6847 2.10435 33.5296C2.72431 33.3744 3.10126 32.746 2.94604 32.126C2.07719 28.6542 2.10528 24.9921 3.02674 21.5355C3.97613 17.9747 5.86395 14.7065 8.48576 12.0847C16.5597 4.01065 29.6081 3.86931 37.8563 11.6604L30.8952 18.6201C28.2763 21.239 28.2763 25.5 30.8952 28.1188C33.532 30.7557 37.7864 30.7264 40.3933 28.1194C40.4339 28.079 45.3595 23.1523 47.3595 21.152L68.1983 41.9901C69.9266 43.7183 69.9013 46.5114 68.1983 48.2144C66.4785 49.9343 63.6941 49.9346 61.974 48.2144C61.8719 48.1122 61.9779 48.3233 52.2252 38.4656C51.7756 38.0112 51.0428 38.0075 50.5886 38.4568C50.1343 38.9063 50.1303 39.639 50.5798 40.0934C52.0749 41.6046 59.4179 49.0215 60.3525 49.8669C62.0528 51.5842 62.0481 54.3645 60.3374 56.0753C58.6214 57.7914 55.8291 57.7913 54.113 56.0753C53.1092 55.0707 56.9594 59.0792 44.3535 46.3375C43.9038 45.8831 43.1711 45.8794 42.7168 46.3287C42.2626 46.7782 42.2586 47.511 42.708 47.9654C44.24 49.5139 51.9143 57.2653 52.5392 57.7905C52.5506 57.8001 52.5634 57.8066 52.5752 57.8157C54.195 59.5419 54.1635 62.2491 52.4764 63.9363C51.6451 64.7675 50.5398 65.2255 49.3642 65.2255C47.926 65.2255 47.1623 64.6953 46.1783 63.8686C46.0972 63.8004 45.7139 63.4449 43.933 61.6604C44.5979 59.3893 44.049 56.8269 42.2373 55.0152C40.5798 53.3577 38.3112 52.7699 36.2212 53.1669C36.6244 51.0464 35.9926 48.7748 34.3822 47.1604C34.3802 47.1584 34.3785 47.1564 34.3765 47.1544C32.8153 45.5933 30.561 44.8913 28.3638 45.3096C28.7684 43.1755 28.143 40.9211 26.5155 39.2936C23.8911 36.6691 19.6428 36.6685 17.0181 39.2936L11.4526 44.8587L8.48576 41.8919C6.81287 40.219 5.44519 38.2997 4.42065 36.1873C4.14169 35.612 3.44936 35.3721 2.87445 35.6511C2.29938 35.93 2.05929 36.6222 2.33826 37.1973C3.47574 39.5426 4.9934 41.6728 6.84929 43.5285L9.83092 46.5102C7.56306 49.1457 7.67617 53.1369 10.1741 55.6348C11.7721 57.2329 14.0261 57.8905 16.188 57.479C15.7834 59.6081 16.4009 61.8616 18.035 63.4958C19.6656 65.1264 21.9176 65.7485 24.0517 65.3429C23.6496 67.4554 24.264 69.7249 25.8958 71.3568C28.4228 73.8837 32.4061 73.954 35.0207 71.7001L36.7545 73.4339C39.3729 76.0523 43.6335 76.0523 46.2521 73.4339C47.8835 71.8025 48.4983 69.5334 48.0969 67.4214C50.2403 67.8285 52.4905 67.1955 54.1129 65.5731C55.7328 63.9531 56.3689 61.7039 55.9612 59.5571C58.0734 59.9584 60.3425 59.3437 61.9739 57.7121C63.2423 56.4438 63.9408 54.7573 63.9408 52.9633C63.9408 52.5349 63.9009 52.1124 63.8229 51.7004C65.9879 52.1101 68.2295 51.4565 69.8348 49.8512C71.4312 48.2547 72.0524 46.0482 71.7023 43.9752C71.9101 43.6696 79 37.8294 79 26.9882ZM11.8105 53.9982C10.0946 52.2821 10.0946 49.4898 11.8105 47.7739L18.6544 40.93C20.3746 39.2099 23.1585 39.2099 24.8787 40.93C26.5968 42.6484 26.6007 45.4324 24.8787 47.1544L18.0349 53.9982C16.319 55.7141 13.5266 55.7145 11.8105 53.9982ZM19.6715 61.8592C17.9516 60.1391 17.9513 57.3549 19.6715 55.6348L26.5153 48.791C28.2461 47.0609 31.0383 47.0896 32.7397 48.791C34.4556 50.5069 34.4556 53.2992 32.7397 55.0153L25.8958 61.8592C24.1759 63.5793 21.3919 63.5793 19.6715 61.8592ZM27.5325 69.7201C25.8165 68.004 25.8165 65.2117 27.5325 63.4958L34.3763 56.652C36.0961 54.932 38.8804 54.9317 40.6006 56.652C42.319 58.3705 42.3223 61.1547 40.6006 62.8763L33.7568 69.7201C32.0409 71.4361 29.2486 71.4362 27.5325 69.7201ZM44.6156 71.7974C42.8997 73.5132 40.1074 73.5135 38.3913 71.7974L36.6721 70.0783L42.2373 64.5129C42.4524 64.2978 42.6497 64.0699 42.8313 63.8323C44.1629 65.1611 44.5113 65.4856 44.6384 65.5972C46.3308 67.3151 46.3237 70.0892 44.6156 71.7974Z" fill="white"/>
</g>
<defs>
<clipPath id="clip0_572_2614">
<rect width="79" height="79" fill="white"/>
</clipPath>
</defs>
</svg>
