<svg width="71" height="71" viewBox="0 0 71 71" fill="none" xmlns="http://www.w3.org/2000/svg">
<path d="M67.956 10.6278C66.167 10.6278 64.4846 11.3249 63.219 12.5904C62.182 13.6261 61.5272 14.9424 61.3239 16.3685L58.8012 15.9134L58.5771 14.0838C60.0573 12.7538 61.0057 10.9121 61.2094 8.86264L61.3602 7.34419C61.5465 5.46949 60.9283 3.59326 59.6641 2.19656C58.4011 0.800691 56.5974 -0.000137788 54.7168 8.83879e-07C52.8386 8.83879e-07 51.0384 0.798749 49.7777 2.19157C48.5141 3.58757 47.8973 5.46408 48.0855 7.33947L48.238 8.8582C48.4434 10.9046 49.3912 12.7448 50.869 14.0754L50.644 15.9134L46.6224 16.6389C46.1003 16.7331 45.594 16.8885 45.1114 17.1004C44.6357 16.8919 44.1303 16.7348 43.6 16.6391L39.5788 15.914L39.3547 14.0838C40.8349 12.7538 41.7834 10.9119 41.987 8.86264L42.1379 7.34391C42.3241 5.46935 41.7059 3.59312 40.4416 2.19628C39.1786 0.800691 37.3749 -0.000137788 35.4942 8.83879e-07C33.6159 8.83879e-07 31.8157 0.798749 30.555 2.19157C29.2915 3.58771 28.6747 5.46408 28.863 7.33947L29.0155 8.8582C29.2209 10.9046 30.1687 12.7446 31.6464 14.0753L31.4212 15.9141L27.4 16.6392C26.8697 16.7349 26.3642 16.892 25.8886 17.1006C25.4062 16.8887 24.8999 16.7334 24.3776 16.6391L20.3562 15.9137L20.1311 14.0754C21.6088 12.7448 22.5567 10.9046 22.7621 8.85834L22.9146 7.33961C23.1028 5.46422 22.4862 3.58771 21.2224 2.19171C19.9608 0.79764 18.1593 -0.000969817 16.2798 8.83879e-07C14.4002 0.000971585 12.5982 0.801523 11.3357 2.19656C10.0714 3.59326 9.45324 5.46949 9.63962 7.34405L9.79049 8.86278C9.9942 10.9121 10.9426 12.7538 12.4228 14.0838L12.1987 15.9134L9.67595 16.3685C9.47266 14.9424 8.81799 13.6261 7.78128 12.5908C6.51521 11.3249 4.83284 10.6278 3.04384 10.6278C1.3655 10.6278 0 11.9932 0 13.6716V22.4551C0 23.0296 0.465659 23.4951 1.04004 23.4951C1.61441 23.4951 2.08007 23.0296 2.08007 22.4551V13.6716C2.08007 13.1402 2.51245 12.7079 3.04384 12.7079C4.27733 12.7079 5.43731 13.1888 6.31094 14.0623C7.1836 14.934 7.66438 16.0938 7.66438 17.3285V36.7233C7.60004 38.0257 8.04046 39.3503 8.9959 40.39L20.2901 52.68C20.6788 53.1029 21.3367 53.1305 21.7597 52.7419C22.1826 52.3532 22.2103 51.6952 21.8218 51.2723L10.5275 38.9824C9.97007 38.375 9.71769 37.6151 9.74459 36.8477C9.77496 36.1234 10.0694 35.4091 10.6281 34.8576C11.7815 33.7188 13.6564 33.7212 14.8072 34.8623L30.8926 50.812C33.1597 53.0601 34.46 56.1806 34.46 59.3732C34.46 61.1672 34.05 62.9702 33.2741 64.5877C32.4686 66.267 32.0273 68.0625 31.9624 69.9236C31.9424 70.4977 32.3916 70.9793 32.9656 70.9993C32.9779 70.9999 32.9901 71 33.0025 71C33.5601 71 34.0215 70.5579 34.0412 69.9963C34.096 68.4233 34.4689 66.9064 35.1496 65.4872C35.275 65.226 35.3913 64.9603 35.5002 64.6914C35.6091 64.9603 35.7254 65.226 35.8508 65.4871C36.5314 66.9063 36.9044 68.4233 36.9592 69.9963C36.9789 70.5579 37.4404 71 37.998 71C38.0102 71 38.0225 70.9999 38.0348 70.9993C38.6089 70.9793 39.058 70.4977 39.038 69.9236C38.9731 68.0624 38.5318 66.267 37.7263 64.5875C36.9504 62.9704 36.5404 61.1672 36.5404 59.3732C36.5404 56.1806 37.8407 53.0601 40.1078 50.812L56.1929 34.862C57.3439 33.7209 59.2187 33.7187 60.3721 34.8576C60.9306 35.4088 61.2249 36.1228 61.2554 36.847C61.2823 37.6145 61.0301 38.3747 60.4725 38.9823L49.1782 51.2722C48.7895 51.6951 48.8173 52.3531 49.2403 52.7418C49.6632 53.1306 50.321 53.1026 50.7098 52.6798L62.0041 40.3899C62.9594 39.3503 63.3998 38.0258 63.3356 36.7234V17.3284C63.3356 16.0938 63.8162 14.9338 64.6895 14.0617C65.5625 13.1886 66.7227 12.7077 67.9562 12.7077C68.4877 12.7077 68.9199 13.1401 68.9199 13.6715V40.3075C68.9199 41.1724 68.6682 42.0111 68.1919 42.7326L66.8856 44.7115C66.5692 45.1909 66.7012 45.836 67.1806 46.1524C67.357 46.269 67.5559 46.3246 67.7526 46.3246C68.0902 46.3246 68.4215 46.1603 68.6215 45.8574L69.9278 43.8785C70.6291 42.8158 70.9997 41.5811 70.9997 40.3075V13.6716C70.9999 11.9932 69.6345 10.6278 67.956 10.6278ZM54.7285 15.7975C55.3835 15.7975 56.0377 15.6555 56.6397 15.3748L56.7961 16.6515C56.343 17.5966 55.4459 17.9405 54.7226 17.9405C53.9994 17.9405 53.1022 17.5966 52.649 16.6515L52.806 15.3698C53.4113 15.6538 54.0697 15.7976 54.7285 15.7975ZM50.3076 8.65047L50.155 7.13174C50.0254 5.84029 50.4498 4.54843 51.3197 3.5873C52.1997 2.61521 53.4059 2.08007 54.7166 2.08007C56.0298 2.08007 57.2396 2.61715 58.1221 3.59229C58.993 4.55439 59.419 5.84709 59.2906 7.1384L59.1397 8.65685C58.9321 10.7455 57.6856 12.5448 55.8051 13.4701C55.1301 13.8021 54.324 13.8018 53.6489 13.4688C53.6489 13.4688 53.6488 13.4688 53.6487 13.4688C51.7664 12.5413 50.5174 10.74 50.3076 8.65047ZM33.5835 15.3698C34.1888 15.6539 34.8472 15.7975 35.5062 15.7975C36.1611 15.7975 36.8154 15.6555 37.4172 15.3748L37.5736 16.6518C37.1207 17.5962 36.2235 17.9399 35.5001 17.9399C34.7766 17.9399 33.8794 17.5962 33.4265 16.6518L33.5835 15.3698ZM31.0852 8.65047L30.9326 7.13174C30.803 5.84029 31.2275 4.54843 32.0972 3.58744C32.9771 2.61521 34.1832 2.08007 35.4941 2.08007C36.8073 2.08007 38.0171 2.61715 38.8996 3.59215C39.7705 4.55439 40.1965 5.84709 40.068 7.13826L39.9172 8.65699C39.7096 10.7457 38.4631 12.5448 36.5827 13.4701C35.9079 13.8021 35.1017 13.8018 34.4263 13.4688C32.5439 12.5413 31.2949 10.74 31.0852 8.65047ZM16.2714 15.7975C16.9303 15.7975 17.5887 15.6539 18.194 15.3698L18.351 16.6515C17.8978 17.5965 17.0007 17.9405 16.2774 17.9405C15.5542 17.9405 14.657 17.5966 14.2039 16.6515L14.3603 15.3747C14.9622 15.6555 15.6164 15.7975 16.2714 15.7975ZM11.8603 8.65713L11.7094 7.1384C11.581 5.84709 12.007 4.55453 12.8779 3.59243C13.7598 2.61798 14.9684 2.08091 16.2809 2.08021C17.5924 2.07952 18.7998 2.61493 19.6803 3.58744C20.55 4.54857 20.9745 5.84029 20.845 7.13188L20.6924 8.65061C20.4826 10.7401 19.2336 12.5416 17.3514 13.469C16.676 13.802 15.8697 13.8023 15.1951 13.4704C13.3146 12.5449 12.0679 10.7457 11.8603 8.65713ZM9.74459 32.8869V18.4698L12.5548 17.9628C13.3444 19.2356 14.7279 20.0206 16.2774 20.0206C17.8268 20.0206 19.2106 19.2356 20.0002 17.9628L23.7117 18.6325C22.5628 19.8457 21.8699 21.4795 21.8699 23.2552V38.9362L16.2716 33.3852C14.4971 31.6253 11.7105 31.459 9.74459 32.8869ZM54.7284 33.385L49.1302 38.9361L49.1301 34.3698C49.1301 33.7952 48.6644 33.3297 48.0901 33.3297C47.5157 33.3297 47.05 33.7952 47.05 34.3698V40.3971C47.0485 41.1959 46.3984 41.8453 45.5994 41.8453C44.7994 41.8453 44.1486 41.1945 44.1486 40.3943L44.1487 26.3161C44.1487 25.7417 43.6831 25.2761 43.1087 25.2761C42.5343 25.2761 42.0687 25.7417 42.0687 26.3161L42.0685 40.3943C42.0685 41.896 43.0112 43.1809 44.3355 43.6906L38.6432 49.3349C37.8331 50.1382 37.1288 51.0371 36.5402 52.0039V41.2807C36.5402 40.7062 36.0746 40.2407 35.5002 40.2407C34.9258 40.2407 34.4602 40.7062 34.4602 41.2807V52.0041C33.8716 51.0371 33.1673 50.1382 32.3571 49.3349L26.6647 43.6906C27.9892 43.1811 28.9319 41.896 28.9319 40.3943L28.9317 26.3161C28.9317 25.7416 28.4661 25.2761 27.8917 25.2761C27.3173 25.2761 26.8517 25.7417 26.8517 26.3161L26.8518 40.3943C26.8518 41.1945 26.201 41.8453 25.401 41.8453C24.601 41.8453 23.9502 41.1945 23.9502 40.3945C23.9502 36.4208 23.9502 27.1274 23.9502 23.2554C23.9502 21.0071 25.5565 19.0855 27.7694 18.6863L31.7776 17.9635C32.5672 19.2356 33.9507 20.0202 35.5002 20.0202C37.0497 20.0202 38.4332 19.2356 39.2228 17.9635L43.2309 18.6863C45.4438 19.0855 47.0502 21.0071 47.0502 23.2554V29.5162C47.0502 30.0908 47.5158 30.5563 48.0902 30.5563C48.6646 30.5563 49.1302 30.0908 49.1302 29.5162V23.2552C49.1302 21.4795 48.4373 19.8457 47.2884 18.6325L50.9999 17.963C51.7897 19.2357 53.1732 20.0206 54.7227 20.0206C56.2722 20.0206 57.6559 19.2356 58.4455 17.9628L61.2555 18.4698V32.8868C59.2892 31.459 56.5027 31.6256 54.7284 33.385Z" fill="white"/>
<path d="M65.6522 48.4673C65.1727 48.1508 64.5276 48.2827 64.2113 48.7622L54.6942 63.1772C53.3781 65.1706 52.5625 67.482 52.3358 69.8612C52.2813 70.433 52.7007 70.9407 53.2725 70.9952C53.3061 70.9984 53.3394 71.0001 53.3724 71.0001C53.9023 71.0001 54.3552 70.5968 54.4066 70.0586C54.6012 68.0168 55.3009 66.0337 56.4301 64.3232L65.9472 49.9082C66.2635 49.4288 66.1315 48.7837 65.6522 48.4673Z" fill="white"/>
<path d="M2.80811 42.7329C2.33191 42.0113 2.08008 41.1726 2.08008 40.3077V27.3086C2.08008 26.7341 1.61442 26.2686 1.04004 26.2686C0.46566 26.2686 0 26.7341 0 27.3086V40.3077C0 41.5813 0.37067 42.816 1.07207 43.8789L10.0927 57.5409C10.2926 57.8437 10.6239 58.0079 10.9616 58.0079C11.1584 58.0079 11.3574 57.9522 11.5336 57.8357C12.013 57.5192 12.145 56.874 11.8284 56.3946L2.80811 42.7329Z" fill="white"/>
<path d="M16.3065 63.177L14.5037 60.4467C14.1873 59.9676 13.542 59.8354 13.0628 60.1518C12.5835 60.4683 12.4514 61.1135 12.768 61.5929L14.5707 64.3231C15.7 66.0336 16.3996 68.0169 16.5942 70.0586C16.6455 70.5967 17.0984 71 17.6284 71C17.6614 71 17.6948 70.9983 17.7283 70.9952C18.3001 70.9407 18.7194 70.433 18.665 69.8611C18.4381 67.4819 17.6227 65.1705 16.3065 63.177Z" fill="white"/>
</svg>
