<svg width="84" height="83" viewBox="0 0 84 83" fill="none" xmlns="http://www.w3.org/2000/svg">
<path d="M47.8366 41.5089C47.8366 38.2848 45.224 35.6722 41.9998 35.6722C38.7757 35.6722 36.1631 38.2848 36.1631 41.5089C36.1631 44.733 38.7757 47.3457 41.9998 47.3457C45.224 47.3457 47.8366 44.733 47.8366 41.5089ZM41.9998 44.5663C40.3137 44.5663 38.9425 43.1951 38.9425 41.5089C38.9425 39.8228 40.3137 38.4516 41.9998 38.4516C43.686 38.4516 45.0572 39.8228 45.0572 41.5089C45.0572 43.1951 43.686 44.5663 41.9998 44.5663Z" fill="white"/>
<path d="M74.519 40.1195C74.1855 31.8925 70.8317 24.2398 64.9949 18.4402C59.1767 12.659 51.5611 9.34223 43.4082 8.99017V1.39312C43.4082 0.625609 42.786 0.00341797 42.0185 0.00341797C41.251 0.00341797 40.6288 0.62561 40.6288 1.39312V8.99017C32.3832 9.3237 24.7306 12.6405 18.9494 18.4402C13.1682 24.2398 9.83295 31.8739 9.49942 40.1195H1.88385C1.11633 40.1195 0.494141 40.7417 0.494141 41.5092C0.494141 42.2767 1.11633 42.8989 1.88385 42.8989H9.48089C9.81442 51.0519 13.1497 58.686 18.9309 64.4857C24.7491 70.3224 32.4017 73.6762 40.6102 74.0098V81.6068C40.6102 82.3743 41.2324 82.9965 42 82.9965C42.7675 82.9965 43.3897 82.3743 43.3897 81.6068V74.0098C51.5241 73.6577 59.1582 70.3224 64.9949 64.4857C70.8317 58.6489 74.1855 51.0333 74.519 42.8804H82.1253C82.8877 42.8804 83.5058 42.2624 83.5058 41.5C83.5058 40.7376 82.8877 40.1195 82.1253 40.1195H74.519ZM43.3897 11.7696C58.6949 12.4737 71.0355 24.8143 71.7396 40.1195H65.6064C65.2729 34.2642 62.8455 28.8537 58.6949 24.7216C54.5629 20.6266 49.1708 18.2363 43.3897 17.9028V11.7696ZM40.6102 11.7696V17.9028C28.4735 18.5699 19.0606 27.9828 18.3935 40.1195H12.2603C12.9459 24.5548 25.0456 12.4552 40.6102 11.7696ZM40.6102 71.2489C25.305 70.5448 12.9644 58.2042 12.2603 42.8989H18.3935C18.7271 48.6986 21.1173 54.0907 25.2123 58.2042C29.3444 62.3548 34.755 64.7821 40.6102 65.1157V71.2489ZM42 56.3142C41.2324 56.3142 40.6102 56.9364 40.6102 57.7039V62.3363C30.2153 61.6507 21.877 53.3125 21.1729 42.8989H25.8053C26.5728 42.8989 27.195 42.2767 27.195 41.5092C27.195 40.7417 26.5728 40.1195 25.8053 40.1195H21.1729C21.84 29.5578 30.03 21.3493 40.6102 20.6822V25.3146C40.6102 26.0821 41.2324 26.7043 42 26.7043C42.7675 26.7043 43.3897 26.0821 43.3897 25.3146V20.6822C53.7846 21.3678 62.1229 29.706 62.827 40.1195H58.1946C57.4271 40.1195 56.8049 40.7417 56.8049 41.5092C56.8049 42.2767 57.4271 42.8989 58.1946 42.8989H62.827C62.1414 53.2939 53.8032 61.6321 43.3897 62.3363V57.7039C43.3897 56.9364 42.7675 56.3142 42 56.3142ZM43.3897 71.2489V65.1157C55.3226 64.4115 64.9023 54.8319 65.6064 42.8989H71.7396C71.0355 58.2042 58.6949 70.5448 43.3897 71.2489Z" fill="white"/>
</svg>
