<svg width="42" height="42" viewBox="0 0 42 42" fill="none" xmlns="http://www.w3.org/2000/svg">
<rect x="0.790527" y="0.209473" width="41" height="41" rx="20.5" fill="#00009B"/>
<path d="M18.7905 23.2095L23.9805 20.2095L18.7905 17.2095V23.2095ZM30.3505 15.3795C30.4805 15.8495 30.5705 16.4795 30.6305 17.2795C30.7005 18.0795 30.7305 18.7695 30.7305 19.3695L30.7905 20.2095C30.7905 22.3995 30.6305 24.0095 30.3505 25.0395C30.1005 25.9395 29.5205 26.5195 28.6205 26.7695C28.1505 26.8995 27.2905 26.9895 25.9705 27.0495C24.6705 27.1195 23.4805 27.1495 22.3805 27.1495L20.7905 27.2095C16.6005 27.2095 13.9905 27.0495 12.9605 26.7695C12.0605 26.5195 11.4805 25.9395 11.2305 25.0395C11.1005 24.5695 11.0105 23.9395 10.9505 23.1395C10.8805 22.3395 10.8505 21.6495 10.8505 21.0495L10.7905 20.2095C10.7905 18.0195 10.9505 16.4095 11.2305 15.3795C11.4805 14.4795 12.0605 13.8995 12.9605 13.6495C13.4305 13.5195 14.2905 13.4295 15.6105 13.3695C16.9105 13.2995 18.1005 13.2695 19.2005 13.2695L20.7905 13.2095C24.9805 13.2095 27.5905 13.3695 28.6205 13.6495C29.5205 13.8995 30.1005 14.4795 30.3505 15.3795Z" fill="white"/>
</svg>
