<svg width="42" height="42" viewBox="0 0 42 42" fill="none" xmlns="http://www.w3.org/2000/svg">
<rect x="0.790527" y="0.209473" width="41" height="41" rx="20.5" fill="#00009B"/>
<path d="M27.7905 11.7095C28.321 11.7095 28.8297 11.9202 29.2047 12.2953C29.5798 12.6703 29.7905 13.179 29.7905 13.7095V27.7095C29.7905 28.2399 29.5798 28.7486 29.2047 29.1237C28.8297 29.4988 28.321 29.7095 27.7905 29.7095H13.7905C13.2601 29.7095 12.7514 29.4988 12.3763 29.1237C12.0012 28.7486 11.7905 28.2399 11.7905 27.7095V13.7095C11.7905 13.179 12.0012 12.6703 12.3763 12.2953C12.7514 11.9202 13.2601 11.7095 13.7905 11.7095H27.7905ZM27.2905 27.2095V21.9095C27.2905 21.0449 26.9471 20.2157 26.3357 19.6043C25.7243 18.9929 24.8951 18.6495 24.0305 18.6495C23.1805 18.6495 22.1905 19.1695 21.7105 19.9495V18.8395H18.9205V27.2095H21.7105V22.2795C21.7105 21.5095 22.3305 20.8795 23.1005 20.8795C23.4718 20.8795 23.8279 21.027 24.0905 21.2895C24.353 21.5521 24.5005 21.9082 24.5005 22.2795V27.2095H27.2905ZM15.6705 17.2695C16.1161 17.2695 16.5434 17.0925 16.8585 16.7774C17.1735 16.4624 17.3505 16.035 17.3505 15.5895C17.3505 14.6595 16.6005 13.8995 15.6705 13.8995C15.2223 13.8995 14.7925 14.0775 14.4755 14.3945C14.1586 14.7114 13.9805 15.1413 13.9805 15.5895C13.9805 16.5195 14.7405 17.2695 15.6705 17.2695ZM17.0605 27.2095V18.8395H14.2905V27.2095H17.0605Z" fill="white"/>
</svg>
