<svg width="75" height="75" viewBox="0 0 75 75" fill="none" xmlns="http://www.w3.org/2000/svg">
<g clip-path="url(#clip0_572_2644)">
<path d="M6.90937 75H42.8616C43.4687 75 43.9602 74.5079 43.9602 73.9014C43.9602 73.2943 43.4687 72.8028 42.8616 72.8028H38.5374C38.5374 71.3419 38.5374 34.6184 38.5374 33.1576C38.5374 32.9825 38.6799 32.84 38.855 32.84H52.3132V72.8028H47.9891C47.382 72.8028 46.8904 73.2943 46.8904 73.9014C46.8904 74.5079 47.382 75 47.9891 75H67.9688C69.3552 75 70.483 73.8716 70.483 72.4852V48.3582C70.483 47.7516 69.9915 47.2595 69.3844 47.2595C68.7778 47.2595 68.2858 47.7516 68.2858 48.3582V72.4852C68.2858 72.6603 68.1433 72.8028 67.9688 72.8028H54.5105C54.5105 72.4217 54.5105 19.7914 54.5105 19.1036C54.5105 18.9291 54.653 18.7866 54.8281 18.7866H67.9688C68.1433 18.7866 68.2858 18.9291 68.2858 19.1036V43.2307C68.2858 43.8378 68.7778 44.3299 69.3844 44.3299C69.9915 44.3299 70.4836 43.8378 70.4836 43.2307V19.1036C70.4836 17.7172 69.3552 16.5888 67.9688 16.5888H54.8281C53.441 16.5888 52.3132 17.7172 52.3132 19.1036V30.6427H38.855C37.468 30.6427 36.3401 31.7705 36.3401 33.1576V44.6961H22.8819C21.4954 44.6961 20.3676 45.8239 20.3676 47.2109V58.7494H6.90937C5.52235 58.7494 4.39453 59.8778 4.39453 61.2643V72.4852C4.39453 73.8716 5.52235 75 6.90937 75ZM22.5649 47.2103C22.5649 47.0352 22.7074 46.8933 22.8819 46.8933H36.3401V72.8028H22.5649C22.5649 71.6955 22.5649 48.3216 22.5649 47.2103ZM6.5918 61.2637C6.5918 61.0892 6.73428 60.9467 6.90937 60.9467H20.3676V72.8028H6.90937C6.73428 72.8028 6.5918 72.6603 6.5918 72.4852V61.2637Z" fill="white"/>
<path d="M13.4803 49.4287C16.0913 49.4287 17.8669 46.7337 16.806 44.3316L27.5789 34.8536C30.5767 36.6663 34.2182 33.5386 32.7791 30.2782L43.5514 20.8002C46.5795 22.6307 50.1758 19.4487 48.7516 16.2249L59.5245 6.74686C61.9375 8.20541 65.0331 6.45561 65.0331 3.63464C65.0331 1.63021 63.4029 0 61.3985 0C58.7875 0 57.0125 2.69508 58.0728 5.0972L47.3005 14.5752C46.7529 14.2439 46.1115 14.0533 45.426 14.0533C42.8144 14.0533 41.0394 16.7484 42.0997 19.1505L31.3274 28.6285C30.7798 28.2972 30.1384 28.1067 29.4529 28.1067C27.449 28.1067 25.8182 29.7369 25.8182 31.7413C25.8182 32.2615 25.9292 32.7559 26.1272 33.2039L15.3543 42.6819C12.9413 41.2233 9.8457 42.9737 9.8457 45.7947C9.8457 47.7985 11.4759 49.4287 13.4803 49.4287ZM61.3985 2.19727C62.191 2.19727 62.8359 2.84214 62.8359 3.63464C62.8359 4.95071 61.2022 5.57442 60.325 4.58679C59.4993 3.64265 60.1751 2.19727 61.3985 2.19727ZM46.4983 16.7347C46.5086 16.7467 46.5114 16.749 46.5114 16.749C47.3171 17.6788 46.6516 19.1248 45.426 19.1248C44.6352 19.1248 43.9886 18.4765 43.9886 17.688C43.9886 16.3731 45.6199 15.7476 46.4983 16.7347ZM29.4529 30.304C30.2488 30.304 30.8897 30.958 30.8897 31.7413C30.8897 33.0288 29.2944 33.7046 28.3662 32.6792C27.5629 31.7488 28.2272 30.304 29.4529 30.304ZM14.5658 44.8557C15.3709 45.7855 14.706 47.2315 13.4803 47.2315C12.6878 47.2315 12.043 46.5872 12.043 45.7941C12.043 44.4986 13.652 43.8354 14.5658 44.8557Z" fill="white"/>
</g>
<defs>
<clipPath id="clip0_572_2644">
<rect width="75" height="75" fill="white"/>
</clipPath>
</defs>
</svg>
