<svg width="55" height="56" viewBox="0 0 55 56" fill="none" xmlns="http://www.w3.org/2000/svg">
<path d="M1.17373 27.383C1.17244 32.0402 2.38931 36.5876 4.70318 40.5957L0.952439 54.2903L14.9671 50.6156C18.8434 52.7257 23.1865 53.8314 27.5999 53.8318H27.6115C42.1812 53.8318 54.0412 41.9761 54.0474 27.4038C54.0502 20.3426 51.3028 13.7026 46.3111 8.70707C41.3203 3.71195 34.6827 0.959589 27.6105 0.956366C13.0391 0.956366 1.17996 12.8114 1.17394 27.383" fill="url(#paint0_linear_0_169)"/>
<path d="M0.229883 27.3745C0.228379 32.1993 1.48887 36.9093 3.88523 41.0609L0 55.2464L14.5172 51.44C18.5172 53.6209 23.0207 54.7708 27.6033 54.7725H27.6152C42.7075 54.7725 54.9936 42.4903 55 27.3964C55.0026 20.0814 52.1563 13.2028 46.9863 8.02828C41.8157 2.85441 34.9407 0.00300781 27.6152 0C12.5202 0 0.235898 12.2805 0.229883 27.3745ZM8.87541 40.3459L8.33336 39.4855C6.05473 35.8624 4.85203 31.6755 4.85375 27.3763C4.85848 14.8304 15.0687 4.62344 27.6238 4.62344C33.7038 4.62602 39.4178 6.99617 43.7156 11.2965C48.0131 15.5972 50.3779 21.3142 50.3764 27.3947C50.3708 39.9405 40.1603 50.1488 27.6152 50.1488H27.6061C23.5213 50.1467 19.5151 49.0497 16.0213 46.9767L15.1899 46.4836L6.57508 48.7422L8.87541 40.3459Z" fill="url(#paint1_linear_0_169)"/>
<path d="M20.7706 15.9302C20.2579 14.7909 19.7185 14.7679 19.231 14.7479C18.8318 14.7307 18.3755 14.732 17.9196 14.732C17.4633 14.732 16.7218 14.9037 16.0951 15.588C15.4678 16.2729 13.7001 17.928 13.7001 21.2944C13.7001 24.6608 16.1521 27.9144 16.4939 28.3714C16.8361 28.8275 21.2275 35.9569 28.1825 38.6996C33.9626 40.9788 35.1389 40.5255 36.3934 40.4112C37.648 40.2974 40.4419 38.7565 41.0119 37.1587C41.5823 35.5611 41.5823 34.1917 41.4113 33.9055C41.2402 33.6205 40.7839 33.4492 40.0996 33.1072C39.4153 32.7652 36.0511 31.1096 35.424 30.8812C34.7966 30.653 34.3405 30.5392 33.8842 31.2243C33.4279 31.9084 32.1175 33.4492 31.7181 33.9055C31.3192 34.363 30.9198 34.4199 30.2357 34.0776C29.551 33.7343 27.3474 33.0127 24.7329 30.6818C22.6988 28.8681 21.3255 26.6284 20.9263 25.9432C20.5271 25.2592 20.8836 24.8883 21.2267 24.5474C21.5341 24.2408 21.9112 23.7484 22.2536 23.349C22.5948 22.9494 22.7087 22.6643 22.9368 22.208C23.1652 21.7512 23.0509 21.3516 22.8801 21.0093C22.7087 20.6671 21.379 17.2831 20.7706 15.9302Z" fill="white"/>
<defs>
<linearGradient id="paint0_linear_0_169" x1="2655.7" y1="5334.35" x2="2655.7" y2="0.956366" gradientUnits="userSpaceOnUse">
<stop stop-color="#1FAF38"/>
<stop offset="1" stop-color="#60D669"/>
</linearGradient>
<linearGradient id="paint1_linear_0_169" x1="2750" y1="5524.64" x2="2750" y2="0" gradientUnits="userSpaceOnUse">
<stop stop-color="#F9F9F9"/>
<stop offset="1" stop-color="white"/>
</linearGradient>
</defs>
</svg>
