<svg width="73" height="73" viewBox="0 0 73 73" fill="none" xmlns="http://www.w3.org/2000/svg">
<path d="M33.1106 0H39.8941C43.931 0 47.2107 3.27819 47.2107 7.31318V21.4917C47.2107 23.152 45.8625 24.5034 44.1975 24.5034H28.8071C27.146 24.5034 25.7939 23.1558 25.7939 21.4917V7.31318C25.7939 3.27819 29.0737 0 33.1106 0Z" fill="#E6E6E6"/>
<path d="M39.8894 72.9619H33.1059C29.069 72.9619 25.7893 69.6837 25.7893 65.6487L25.7893 51.4703C25.7893 49.81 27.1375 48.4585 28.8025 48.4585H44.1929C45.854 48.4585 47.2061 49.8061 47.2061 51.4703V65.6487C47.2061 69.6837 43.9263 72.9619 39.8894 72.9619Z" fill="#E6E6E6"/>
<path d="M0 39.8749L0 33.0946C0 29.0596 3.27973 25.7814 7.31661 25.7814H21.5017C23.1628 25.7814 24.5149 27.129 24.5149 28.7932V44.1763C24.5149 45.8367 23.1667 47.1881 21.5017 47.1881H7.31661C3.27973 47.1881 0 43.9099 0 39.8749Z" fill="#E6E6E6"/>
<path d="M73 33.0908V39.8711C73 43.9061 69.7203 47.1843 65.6834 47.1843H51.4983C49.8372 47.1843 48.4851 45.8367 48.4851 44.1725V28.7893C48.4851 27.129 49.8333 25.7776 51.4983 25.7776H65.6834C69.7203 25.7776 73 29.0558 73 33.0908Z" fill="#E6E6E6"/>
</svg>
