<svg width="148" height="55" viewBox="0 0 148 55" fill="none" xmlns="http://www.w3.org/2000/svg">
<path d="M84.0718 7.86401C85.4394 7.86401 86.468 8.33532 86.468 9.60826C86.468 10.2677 86.0426 10.8167 85.4805 10.9726C86.0885 11.1512 86.6148 11.7049 86.6148 12.4421C86.6148 13.7192 85.6774 14.2735 84.2186 14.2735H81.5891V7.86401H84.0724H84.0718ZM82.6225 8.8347V10.5604H84.0402C84.7586 10.5604 85.3851 10.4505 85.3851 9.68591C85.3851 8.92131 84.7496 8.8347 84.0313 8.8347H82.6225ZM82.6225 11.5269V13.3034H84.1726C84.9865 13.3034 85.5307 13.1475 85.5307 12.4062C85.5307 11.6649 84.9865 11.5269 84.1726 11.5269H82.6225Z" fill="white"/>
<path d="M93.1834 12.4152C93.1834 13.8112 92.1775 14.3882 91.153 14.3882C90.1285 14.3882 89.1226 13.8112 89.1226 12.4152V9.88782H90.0826V12.328C90.0826 13.175 90.5534 13.4862 91.1524 13.4862C91.7515 13.4862 92.2228 13.175 92.2228 12.328V9.88782H93.1829V12.4152H93.1834Z" fill="white"/>
<path d="M97.0718 8.37233C97.0718 8.75225 96.7747 9.04076 96.3952 9.04076C96.0157 9.04076 95.7275 8.75225 95.7275 8.37233C95.7275 7.99242 96.0157 7.69495 96.3952 7.69495C96.7747 7.69495 97.0718 7.99242 97.0718 8.37233ZM96.8797 14.2735H95.9197V9.8872H96.8797V14.2735Z" fill="white"/>
<path d="M100.621 14.2736H99.6614V7.68066H100.621V14.2736Z" fill="white"/>
<path d="M106.654 10.4189V7.68127H107.61V14.2742H106.654V13.7473C106.352 14.1368 105.899 14.3883 105.278 14.3883C104.052 14.3883 103.087 13.4223 103.087 12.0807C103.087 10.7391 104.052 9.77317 105.278 9.77317C105.899 9.77317 106.352 10.0294 106.654 10.4189ZM104.07 12.0807C104.07 12.8495 104.569 13.4863 105.392 13.4863C106.215 13.4863 106.713 12.8818 106.713 12.0807C106.713 11.2797 106.183 10.6752 105.392 10.6752C104.601 10.6752 104.07 11.3113 104.07 12.0807Z" fill="white"/>
<path d="M111.544 8.37233C111.544 8.75225 111.247 9.04076 110.867 9.04076C110.488 9.04076 110.2 8.75225 110.2 8.37233C110.2 7.99242 110.488 7.69495 110.867 7.69495C111.247 7.69495 111.544 7.99242 111.544 8.37233ZM111.352 14.2735H110.392V9.8872H111.352V14.2735Z" fill="white"/>
<path d="M118.208 11.5174V14.2736H117.248V11.8334C117.248 11.0963 116.869 10.6841 116.228 10.6841C115.588 10.6841 115.094 11.0915 115.094 11.8424V14.2736H114.134V9.88729H115.085V10.4231C115.437 9.9058 115.981 9.77319 116.43 9.77319C117.472 9.77319 118.209 10.4918 118.209 11.5174H118.208Z" fill="white"/>
<path d="M124.118 10.4141V9.88729H125.078V13.9665C125.078 15.3446 124.191 16.1917 122.728 16.1917C122.074 16.1917 121.356 16.013 120.894 15.6833L121.241 14.8733C121.685 15.1433 122.193 15.3171 122.728 15.3171C123.624 15.3171 124.118 14.8225 124.118 14.0078V13.6553C123.789 14.0765 123.295 14.2963 122.659 14.2963C121.658 14.2963 120.629 13.454 120.629 12.0347C120.629 10.6154 121.658 9.77319 122.659 9.77319C123.295 9.77319 123.789 9.99779 124.118 10.4141ZM121.611 12.0353C121.611 12.7725 122.096 13.3949 122.906 13.3949C123.715 13.3949 124.2 12.8041 124.2 12.0353C124.2 11.2666 123.678 10.6758 122.906 10.6758C122.133 10.6758 121.611 11.294 121.611 12.0353Z" fill="white"/>
<path d="M87.1316 27.0925H86.1984L82.6268 22.4547L82.6221 27.0925H81.5886V20.683H82.5218L86.0976 25.3208V20.683H87.131V27.0925H87.1316Z" fill="white"/>
<path d="M93.9699 24.8955C93.9699 25.0192 93.9604 25.1428 93.9514 25.2527H90.7139C90.8422 26.04 91.3953 26.3698 92.017 26.3698C92.4562 26.3698 92.9228 26.196 93.2837 25.9074L93.7593 26.5896C93.2241 27.0472 92.6209 27.2079 91.9574 27.2079C90.6447 27.2079 89.7163 26.2921 89.7163 24.9003C89.7163 23.5085 90.6083 22.5928 91.8977 22.5928C93.1871 22.5928 93.9645 23.527 93.9693 24.8955H93.9699ZM90.7187 24.5246H92.9914C92.8864 23.8424 92.4884 23.444 91.8798 23.444C91.1984 23.444 90.8189 23.8836 90.7187 24.5246Z" fill="white"/>
<path d="M99.3768 23.5765H97.6984V25.4856C97.6984 26.0764 98.0093 26.3052 98.3935 26.3052C98.6907 26.3052 99.0152 26.1726 99.276 26.0077L99.6554 26.7723C99.3034 27.0101 98.8595 27.2072 98.3106 27.2072C97.3183 27.2072 96.7378 26.6714 96.7378 25.5042V23.5765H95.8643V22.7068H96.7378V21.3789H97.6978V22.7068H99.3762V23.5765H99.3768Z" fill="white"/>
<path d="M106.539 26.058L107.572 22.7069H108.569L107.12 27.0932H105.976L104.893 23.7875L103.809 27.0932H102.684L101.234 22.7069H102.254L103.283 26.0401L104.362 22.7069H105.447L106.54 26.058H106.539Z" fill="white"/>
<path d="M115.162 24.8997C115.162 26.2139 114.156 27.2072 112.802 27.2072C111.448 27.2072 110.447 26.2139 110.447 24.8997C110.447 23.5855 111.449 22.5922 112.802 22.5922C114.155 22.5922 115.162 23.5855 115.162 24.8997ZM111.43 24.8997C111.43 25.7282 112.02 26.3053 112.802 26.3053C113.583 26.3053 114.178 25.7282 114.178 24.8997C114.178 24.0712 113.584 23.4942 112.802 23.4942C112.02 23.4942 111.43 24.0712 111.43 24.8997Z" fill="white"/>
<path d="M120.582 22.7158L120.353 23.6638C120.152 23.5587 119.859 23.5037 119.626 23.5037C119.018 23.5037 118.584 23.9338 118.584 24.6805V27.0932H117.628V22.7069H118.575V23.2015C118.863 22.7851 119.311 22.5928 119.846 22.5928C120.139 22.5928 120.363 22.6292 120.583 22.7164L120.582 22.7158Z" fill="white"/>
<path d="M123.798 24.3734H124.279L125.724 22.7068H126.927L125.093 24.7719L126.945 27.0931H125.733L124.274 25.2438H123.799V27.0931H122.839V20.5002H123.799V24.3734H123.798Z" fill="white"/>
<path d="M135.508 23.5765H134.008V27.0925H133.048V23.5765H132.169V22.7068H133.048V21.9649C133.048 21.0856 133.491 20.3855 134.516 20.3855C135.027 20.3855 135.412 20.5229 135.736 20.7152L135.398 21.521C135.174 21.3932 134.868 21.2875 134.579 21.2875C134.209 21.2875 134.008 21.53 134.008 21.9649V22.7068H135.508V23.5765Z" fill="white"/>
<path d="M142.098 24.8997C142.098 26.2139 141.092 27.2072 139.738 27.2072C138.384 27.2072 137.383 26.2139 137.383 24.8997C137.383 23.5855 138.385 22.5922 139.738 22.5922C141.091 22.5922 142.098 23.5855 142.098 24.8997ZM138.366 24.8997C138.366 25.7282 138.956 26.3053 139.738 26.3053C140.52 26.3053 141.115 25.7282 141.115 24.8997C141.115 24.0712 140.52 23.4942 139.738 23.4942C138.956 23.4942 138.366 24.0712 138.366 24.8997Z" fill="white"/>
<path d="M147.519 22.7158L147.291 23.6638C147.089 23.5587 146.796 23.5037 146.563 23.5037C145.955 23.5037 145.521 23.9338 145.521 24.6805V27.0932H144.565V22.7069H145.512V23.2015C145.8 22.7851 146.248 22.5928 146.783 22.5928C147.076 22.5928 147.3 22.6292 147.52 22.7164L147.519 22.7158Z" fill="white"/>
<path d="M87.0719 34.4178L86.3129 35.1549C85.9102 34.674 85.307 34.3766 84.5934 34.3766C83.2855 34.3766 82.3249 35.324 82.3249 36.7068C82.3249 38.0897 83.2855 39.037 84.5474 39.037C85.7133 39.037 86.3994 38.4325 86.5641 37.3752H84.8672V36.4141H87.6841C87.6882 36.4965 87.693 36.579 87.693 36.6614C87.693 38.5018 86.5265 40.0262 84.5468 40.0262C82.8958 40.0262 81.2407 38.8453 81.2407 36.7068C81.2407 34.7792 82.6494 33.3832 84.5927 33.3832C85.6124 33.3832 86.4907 33.7679 87.0713 34.4178H87.0719Z" fill="white"/>
<path d="M93.2019 35.5348L92.9733 36.4828C92.7723 36.3776 92.4793 36.3227 92.246 36.3227C91.638 36.3227 91.2037 36.7528 91.2037 37.4995V39.9121H90.2478V35.5258H91.1947V36.0204C91.4829 35.6041 91.931 35.4117 92.4662 35.4117C92.7591 35.4117 92.9829 35.4482 93.2025 35.5354L93.2019 35.5348Z" fill="white"/>
<path d="M99.6733 37.7187C99.6733 39.0328 98.6674 40.0262 97.3135 40.0262C95.9597 40.0262 94.9585 39.0328 94.9585 37.7187C94.9585 36.4045 95.9603 35.4111 97.3135 35.4111C98.6668 35.4111 99.6733 36.4045 99.6733 37.7187ZM95.9418 37.7187C95.9418 38.5472 96.5319 39.1242 97.3135 39.1242C98.0952 39.1242 98.69 38.5472 98.69 37.7187C98.69 36.8902 98.0958 36.3131 97.3135 36.3131C96.5313 36.3131 95.9418 36.8902 95.9418 37.7187Z" fill="white"/>
<path d="M106.855 38.877L107.888 35.5259H108.885L107.435 39.9122H106.292L105.209 36.6065L104.124 39.9122H103L101.55 35.5259H102.569L103.599 38.8591L104.678 35.5259H105.762L106.855 38.877H106.855Z" fill="white"/>
<path d="M114.155 36.3955H112.477V38.3046C112.477 38.8954 112.788 39.1242 113.172 39.1242C113.469 39.1242 113.794 38.9916 114.055 38.8267L114.434 39.5913C114.082 39.829 113.638 40.0262 113.09 40.0262C112.097 40.0262 111.516 39.4903 111.516 38.3231V36.3955H110.643V35.5258H111.516V34.1979H112.476V35.5258H114.155V36.3955H114.155Z" fill="white"/>
<path d="M117.564 36.0479C117.916 35.5443 118.456 35.4117 118.899 35.4117C119.941 35.4117 120.678 36.1303 120.678 37.156V39.9121H119.718V37.472C119.718 36.7348 119.338 36.3227 118.698 36.3227C118.058 36.3227 117.564 36.7301 117.564 37.4809V39.9121H116.604V33.3192H117.564V36.0479Z" fill="white"/>
<path d="M51.3891 18.2901V25.0102C51.3891 26.3614 50.2948 27.4563 48.9458 27.4563H45.0896C43.7399 27.4563 42.6463 26.3608 42.6463 25.0102V18.3128H42.6445C42.6445 14.8852 39.87 12.1082 36.4487 12.1082C34.5728 12.1082 32.8902 12.9433 31.7548 14.2634C31.3634 14.7186 30.6474 14.6917 30.2936 14.206C28.4111 11.6231 25.8747 9.54675 22.9296 8.22423C22.068 7.83715 21.5095 6.98534 21.5095 6.04034V1.67555C21.5089 0.750264 22.2583 0 23.1825 0H28.5782C29.5018 0 30.25 0.749667 30.25 1.67376V3.18623C30.25 3.89229 30.9439 4.3869 31.611 4.15811C33.1277 3.63783 34.7536 3.35409 36.4481 3.35409C44.6934 3.35409 51.3772 10.039 51.3873 18.2901H51.3891Z" fill="white"/>
<path d="M70.1535 7.84436H66.2991C64.9494 7.84436 63.8558 8.93989 63.8558 10.2905C63.8558 10.8251 63.3247 11.1943 62.8241 11.0097C61.2144 10.4153 59.4745 10.0904 57.6601 10.0904C56.3933 10.0904 55.1624 10.2481 53.9882 10.5455C53.5938 10.6453 53.3617 11.0539 53.4739 11.4457C54.049 13.454 54.8611 18.3176 54.8611 18.3176C54.8611 18.8677 55.3915 19.2465 55.919 19.0924C56.4709 18.9305 57.0544 18.8439 57.6594 18.8439C61.0789 18.8439 63.8552 21.6191 63.8552 25.0467C63.8552 28.4742 61.0789 31.2495 57.6594 31.2495C56.1505 31.2495 54.7662 30.7101 53.6923 29.8123C53.3337 29.5124 52.8271 29.4981 52.4518 29.7764C51.4709 30.5034 50.2573 30.9329 48.9446 30.9329H45.0884C44.5353 30.9329 44.1737 31.5213 44.4315 32.0117C46.9333 36.7654 51.9172 40.0054 57.6594 40.0054C59.4256 40.0054 61.1189 39.6959 62.6911 39.132C63.2579 38.929 63.8546 39.3405 63.8546 39.9432V40.0072H63.8504C63.8098 43.3977 61.0515 46.1323 57.6571 46.1323C54.9136 46.1323 52.0992 44.8206 51.4064 41.8733C51.1373 40.7276 49.99 40.3506 48.8139 40.3506H45.413C43.6576 40.3506 42.3425 41.6421 42.7429 43.3529C44.29 49.9643 50.5819 54.8876 57.6577 54.8876C65.6332 54.8876 72.1458 48.6298 72.5742 40.7532C72.5826 40.6917 72.5885 35.6155 72.5927 31.2501H72.5969V10.2905C72.5969 8.93929 71.5026 7.84436 70.1535 7.84436Z" fill="white"/>
<path d="M15.4535 10.0503C13.2375 10.0503 11.1354 10.5366 9.24342 11.4015V2.4521C9.24342 1.09792 8.14676 0 6.79413 0H2.93074C1.57811 0 0.481445 1.09792 0.481445 2.4521V25.0425C0.481445 33.3216 7.18435 40.0316 15.4535 40.0316C23.7262 40.0316 30.4285 33.321 30.4285 25.0425C30.4285 16.7639 23.7256 10.0503 15.4535 10.0503ZM15.4535 31.2596C12.0257 31.2596 9.24342 28.4772 9.24342 25.0425C9.24342 21.6083 12.0257 18.8253 15.4535 18.8253C18.8837 18.8253 21.6635 21.6077 21.6635 25.0425C21.6635 28.4772 18.8843 31.2596 15.4535 31.2596Z" fill="white"/>
<path d="M9.65449 44.6305V54.329C9.65449 54.5787 9.45223 54.7818 9.20223 54.7818H7.5262C7.2768 54.7818 7.07393 54.5793 7.07393 54.329V50.4164H3.06079V54.329C3.06079 54.5787 2.85853 54.7818 2.60853 54.7818H0.932499C0.683094 54.7818 0.480225 54.5793 0.480225 54.329V44.6305C0.480225 44.3808 0.682497 44.1777 0.932499 44.1777H2.60853C2.85793 44.1777 3.06079 44.3802 3.06079 44.6305V48.3317H7.07393V44.6305C7.07393 44.3808 7.2762 44.1777 7.5262 44.1777H9.20223C9.45164 44.1777 9.65449 44.3802 9.65449 44.6305Z" fill="white"/>
<path d="M16.6105 44.1778C16.8599 44.1778 17.0628 44.3803 17.0628 44.6306V50.5222C17.0628 51.1566 17.2185 51.6452 17.5305 51.9875C17.842 52.3298 18.2996 52.5012 18.9035 52.5012C19.5073 52.5012 19.9697 52.3304 20.2913 51.9875C20.6129 51.6452 20.774 51.1566 20.774 50.5222V44.6306C20.774 44.3809 20.9763 44.1778 21.2263 44.1778H22.9023C23.1517 44.1778 23.3546 44.3803 23.3546 44.6306V50.5067C23.3546 51.4535 23.1535 52.2539 22.7513 52.908C22.3492 53.5627 21.8086 54.0561 21.1296 54.3882C20.4506 54.7204 19.6934 54.8864 18.8587 54.8864C18.024 54.8864 17.277 54.7228 16.6182 54.3954C15.9595 54.0681 15.4386 53.5747 15.0568 52.9152C14.6743 52.2557 14.4834 51.4529 14.4834 50.5061V44.63C14.4834 44.3803 14.6857 44.1772 14.9357 44.1772H16.6117L16.6105 44.1778Z" fill="white"/>
<path d="M36.0722 50.2576C36.444 50.7361 36.6307 51.2821 36.6307 51.8961C36.6307 52.7826 36.3211 53.4845 35.7029 54.0036C35.0842 54.5221 34.222 54.7813 33.1152 54.7813H28.6337C28.3843 54.7813 28.1814 54.5788 28.1814 54.3285V44.63C28.1814 44.3803 28.3837 44.1772 28.6337 44.1772H32.9493C34.0257 44.1772 34.8676 44.424 35.4768 44.9174C36.0854 45.4108 36.3897 46.0804 36.3897 46.9262C36.3897 47.5504 36.2262 48.0689 35.8992 48.4817C35.5722 48.8951 35.1373 49.1818 34.5943 49.3425C35.2077 49.4733 35.7005 49.7779 36.0728 50.2564L36.0722 50.2576ZM30.7614 48.468H32.4511C32.8735 48.468 33.1981 48.3748 33.4243 48.1884C33.6504 48.002 33.7638 47.7279 33.7638 47.3653C33.7638 47.0027 33.6504 46.7261 33.4243 46.5344C33.1981 46.3432 32.8735 46.2476 32.4511 46.2476H30.7614V48.468ZM33.6659 52.4027C33.9022 52.2062 34.0203 51.9218 34.0203 51.5491C34.0203 51.1763 33.8968 50.8848 33.6504 50.6734C33.404 50.4619 33.0645 50.3562 32.6319 50.3562H30.7614V52.6972H32.6623C33.0949 52.6972 33.429 52.5986 33.6659 52.4027Z" fill="white"/>
</svg>
