<svg width="35" height="18" viewBox="0 0 35 18" fill="none" xmlns="http://www.w3.org/2000/svg">
<path d="M5.03189 12.4002C8.36166 15.7284 12.791 17.5609 17.5 17.5609C22.209 17.5609 26.6383 15.7284 29.9681 12.4002C32.7481 9.62147 34.4859 6.07823 34.9831 2.24589C35.1385 1.05366 34.2038 0 33.0015 0H29.8343C28.8638 0 28.0247 0.695262 27.867 1.65096C27.0471 6.63013 22.7086 10.4386 17.5 10.4386C12.2914 10.4386 7.9553 6.63013 7.13301 1.65096C6.97525 0.695262 6.13623 0 5.16575 0H1.99852C0.796173 0 -0.138452 1.05366 0.0169211 2.24589C0.514116 6.07823 2.2519 9.62147 5.03189 12.4002Z" fill="#0DFFC0"/>
</svg>
