<svg width="35" height="18" viewBox="0 0 35 18" fill="none" xmlns="http://www.w3.org/2000/svg">
<path d="M29.9681 5.16076C26.6383 1.83255 22.209 0 17.5 0C12.791 0 8.36166 1.83255 5.03189 5.16076C2.2519 7.93945 0.514116 11.4827 0.0169211 15.315C-0.138452 16.5073 0.796173 17.5609 1.99852 17.5609H5.16575C6.13623 17.5609 6.97525 16.8656 7.13301 15.9099C7.95291 10.9308 12.2914 7.12232 17.5 7.12232C22.7086 7.12232 27.0447 10.9308 27.867 15.9099C28.0247 16.8656 28.8638 17.5609 29.8343 17.5609H33.0015C34.2038 17.5609 35.1385 16.5073 34.9831 15.315C34.4859 11.4827 32.7481 7.93945 29.9681 5.16076Z" fill="#0DFFC0"/>
</svg>
