<svg width="10" height="17" viewBox="0 0 10 17" fill="none" xmlns="http://www.w3.org/2000/svg">
<path d="M8.23637 1.53583C8.23563 1.53621 8.22759 1.53989 8.2144 1.55281L1.82842 7.80898C1.43512 8.19431 1.43519 8.80565 1.82842 9.19102L8.2144 15.4472C8.22755 15.4601 8.2357 15.4638 8.23637 15.4642C8.23735 15.4646 8.23843 15.4648 8.24037 15.4652C8.24693 15.4662 8.26513 15.4666 8.2883 15.4572C8.2971 15.4536 8.30291 15.4492 8.30727 15.4462L8.30527 15.4452L4.15713 11.3819C2.53617 9.79368 2.53611 7.20628 4.15713 5.61807L8.30627 1.55381C8.31099 1.54845 8.30838 1.54693 8.30827 1.55281C8.30391 1.54982 8.29721 1.54644 8.2883 1.54282C8.26502 1.53341 8.24685 1.53373 8.24037 1.53483C8.2384 1.53518 8.23744 1.53531 8.23637 1.53583Z" fill="#003CFF" stroke="#003CFF" stroke-width="3"/>
</svg>
