<svg width="56" height="71" viewBox="0 0 56 71" fill="none" xmlns="http://www.w3.org/2000/svg">
<path d="M23.2773 62.8866H22.0615L21.8692 55.3123C21.7945 52.2596 20.6092 49.6745 18.3463 47.6302C17.0931 46.4946 15.8372 45.3604 14.5827 44.2248C13.306 43.0698 12.0307 41.9163 10.7554 40.7613C10.0182 40.0946 9.07349 39.7364 8.08314 39.7461L7.8729 31.3599C7.84662 30.3101 7.41092 29.3322 6.64741 28.606C5.8839 27.8798 4.88939 27.4981 3.83818 27.5216C2.78974 27.5479 1.81322 27.9836 1.08705 28.7457C0.360884 29.5092 -0.0250213 30.5079 0.00125903 31.5549L0.471538 50.3121C0.529632 52.5764 1.44806 54.5751 3.12585 56.091L5.90049 58.5987C7.13567 59.7191 7.78438 61.1313 7.82725 62.7953L7.82864 62.8838H6.70135C5.68334 62.8838 4.85481 63.7123 4.85481 64.7303V68.9725C4.85481 69.9905 5.68334 70.8191 6.70135 70.8191H23.2787C24.2953 70.8191 25.1211 69.9905 25.1211 68.9725V64.7303C25.1197 63.7151 24.2939 62.8866 23.2773 62.8866ZM10.0362 62.7441C9.97671 60.4494 9.08456 58.5033 7.38187 56.961L4.60584 54.452C3.37067 53.3357 2.72334 51.9249 2.68047 50.2568L2.21019 31.4996C2.19912 31.0418 2.36787 30.6061 2.68738 30.27C3.0069 29.9338 3.4343 29.743 3.89213 29.7319C4.34996 29.7181 4.78704 29.8896 5.12177 30.2077C5.45788 30.5272 5.64876 30.9546 5.65982 31.4138L5.88666 40.4294C5.63492 40.6023 5.40255 40.8042 5.19369 41.0352C3.73721 42.6438 3.86031 45.1404 5.46756 46.5997L7.70968 48.6274C9.11084 49.8944 10.5106 51.1614 11.909 52.4298C12.3613 52.8406 13.0612 52.806 13.4706 52.3537C13.88 51.9014 13.8468 51.2015 13.3945 50.7921C11.9948 49.5237 10.595 48.2567 9.19245 46.9884L6.95309 44.962C6.24767 44.3216 6.19373 43.2261 6.83414 42.5193C7.13982 42.1805 7.56307 41.9813 8.02505 41.9591C8.48841 41.937 8.93103 42.0933 9.27129 42.4018C10.5466 43.5567 11.8232 44.7117 13.0999 45.8666C14.3544 47.0022 15.609 48.1364 16.8635 49.272C18.6603 50.8944 19.6008 52.9457 19.6589 55.369L19.8498 62.8879H10.0403L10.0362 62.7441ZM22.9094 68.6101H7.06513V65.0969H22.9094V68.6101ZM54.9119 28.7457C54.1857 27.9822 53.2078 27.5465 52.158 27.5202C51.1095 27.4912 50.1122 27.8784 49.3487 28.6046C48.5852 29.3308 48.1495 30.3087 48.1232 31.3585L47.913 39.7447C46.96 39.7378 46.0015 40.0725 45.2407 40.7613C42.7123 43.0505 40.1838 45.341 37.6499 47.6302C35.3911 49.6745 34.2058 52.2583 34.1269 55.3109L33.9347 62.8866H32.723C31.705 62.8866 30.8765 63.7151 30.8765 64.7331V68.9753C30.8765 69.9933 31.705 70.8218 32.723 70.8218H49.3003C50.317 70.8218 51.1427 69.9933 51.1427 68.9753V64.7331C51.1427 63.7151 50.3156 62.8866 49.3003 62.8866H48.173L48.1758 62.7994C48.2159 61.1341 48.8632 59.7219 50.1026 58.6015L52.8744 56.0924C54.5522 54.5765 55.4693 52.5778 55.5288 50.3121L55.999 31.5549C56.0225 30.5065 55.638 29.5092 54.9119 28.7457ZM48.931 68.6101H33.0868V65.0969H48.931V68.6101ZM53.3157 50.2568C53.2728 51.9249 52.6241 53.3358 51.3889 54.4534L48.617 56.9624C46.9102 58.5047 46.0181 60.4508 45.9627 62.7455L45.9586 62.8879H36.145L36.3358 55.369C36.3981 52.9457 37.34 50.8944 39.1326 49.272C41.6652 46.9814 44.195 44.6923 46.7235 42.4018C47.4303 41.7627 48.5257 41.8167 49.1634 42.5179C49.801 43.2247 49.7457 44.3216 49.0431 44.9606L42.6016 50.7907C42.1493 51.2001 42.1147 51.9 42.5242 52.3523C42.9336 52.8046 43.6335 52.8392 44.0858 52.4298L50.5286 46.5983C52.1331 45.1404 52.2576 42.6466 50.8038 41.0338C50.5922 40.8 50.3571 40.5995 50.1081 40.4294L50.3349 31.4152C50.346 30.956 50.5383 30.5272 50.873 30.2091C51.2077 29.891 51.6448 29.7181 52.1026 29.7333C52.5618 29.7443 52.9906 29.9352 53.3088 30.2713C53.6269 30.6061 53.797 31.0431 53.7846 31.501L53.3157 50.2568ZM27.3328 21.4246C27.5292 21.5726 27.7643 21.6472 27.9981 21.6472C28.2318 21.6472 28.467 21.5726 28.6634 21.4246C32.9153 18.2211 35.9873 15.0564 37.7909 12.0176C39.8021 8.63158 39.7979 6.11974 39.4411 4.60932C38.8892 2.2759 37.0606 0.552467 34.6664 0.112618C32.2444 -0.331381 29.7948 0.555234 27.9981 2.45848C26.2041 0.556617 23.7545 -0.331381 21.3339 0.112618C18.9397 0.551084 17.1097 2.27452 16.5578 4.60793C16.201 6.11836 16.1968 8.6302 18.2066 12.0162C20.0102 15.0564 23.0809 18.2211 27.3328 21.4246ZM18.7101 5.11832C19.0628 3.62865 20.1928 2.57052 21.7323 2.28835C21.9827 2.24271 22.251 2.21781 22.5304 2.21781C23.9883 2.21781 25.7642 2.89833 27.081 4.84307C27.2871 5.14737 27.6301 5.32857 27.9967 5.32857C28.3632 5.32857 28.7063 5.14599 28.9123 4.84307C30.4836 2.52349 32.7078 2.00203 34.2652 2.28835C35.8061 2.57052 36.9348 3.62865 37.2875 5.11832C37.6111 6.49043 37.8684 11.4906 27.9967 19.1492C18.1277 11.4906 18.3864 6.48905 18.7101 5.11832ZM31.8253 43.565L32.6746 40.9522C34.232 40.54 35.7342 39.9176 37.145 39.0987L39.5987 40.3491C40.4369 40.7724 41.4411 40.6092 42.094 39.948L44.6031 37.4389C45.2684 36.7805 45.4316 35.7764 45.007 34.9354L43.758 32.4844C44.5754 31.0763 45.1992 29.5742 45.6114 28.014L48.2297 27.1633C49.1177 26.8701 49.7139 26.0457 49.7139 25.1135V23.3375C49.7139 22.7261 49.2187 22.2323 48.6087 22.2323H7.39017C6.77881 22.2323 6.28502 22.7275 6.28502 23.3375V25.1135C6.28502 26.0471 6.87978 26.8701 7.77054 27.1647L10.3834 28.014C10.7955 29.5714 11.418 31.075 12.2368 32.4844L10.9947 34.9312C10.5632 35.7694 10.7236 36.7778 11.3875 37.4348L13.8966 39.9439C14.555 40.6092 15.5592 40.7724 16.4002 40.3477L18.8511 39.0987C20.2606 39.9176 21.7641 40.5414 23.3257 40.9536L24.1736 43.5622C24.4599 44.453 25.2829 45.0505 26.2221 45.0505H29.7741C30.7077 45.0505 31.5307 44.4558 31.8253 43.565ZM37.4521 24.4426C36.9016 29.1731 32.8738 32.8565 27.9981 32.8565C23.1224 32.8565 19.0946 29.1717 18.5441 24.4426H37.4521ZM30.5805 40.2385L29.7353 42.8388H26.2636L25.4185 40.2385C25.1875 39.5289 24.6397 39.013 23.9149 38.8221C22.529 38.4583 21.1915 37.9037 19.9356 37.1706C19.2855 36.793 18.5316 36.7736 17.8746 37.1139L15.4375 38.356L12.9823 35.9008L14.2189 33.4678C14.5619 32.8039 14.5439 32.0515 14.165 31.3986C13.4333 30.1455 12.8786 28.8066 12.5148 27.4192C12.3226 26.6889 11.8025 26.1426 11.0971 25.9199L8.49671 25.0748V24.4426H16.3213C16.8801 30.3944 21.9038 35.0682 27.9981 35.0682C34.0937 35.0682 39.116 30.3944 39.6762 24.4426H47.505V25.0734L44.9101 25.9157C44.195 26.1412 43.675 26.6875 43.4827 27.4192C43.1189 28.8052 42.5643 30.1427 41.8312 31.3986C41.4536 32.0487 41.4342 32.8025 41.7745 33.4595L43.0166 35.8967L40.5587 38.3546L38.1271 37.1167C37.4631 36.7736 36.7107 36.7916 36.0578 37.1706C34.8047 37.9023 33.4658 38.4569 32.0798 38.8207H32.0784C31.3592 39.0116 30.8128 39.5275 30.5805 40.2385ZM41.5449 14.8323H44.2545V17.542C44.2545 18.1533 44.7497 18.6471 45.3597 18.6471H49.4691C50.0804 18.6471 50.5742 18.152 50.5742 17.542V14.8323H53.2797C53.8897 14.8323 54.3849 14.3372 54.3849 13.7272V9.61779C54.3849 9.00642 53.8897 8.51263 53.2797 8.51263H50.5742V5.80299C50.5742 5.19163 50.0791 4.69784 49.4691 4.69784H45.3597C44.7497 4.69784 44.2545 5.19301 44.2545 5.80299V8.51263H41.5449C40.9335 8.51263 40.4397 9.00781 40.4397 9.61779V13.7272C40.4383 14.3372 40.9335 14.8323 41.5449 14.8323ZM42.65 10.7243H45.3597C45.971 10.7243 46.4648 10.2291 46.4648 9.61917V6.90953H48.3625V9.61917C48.3625 10.2305 48.8577 10.7243 49.4677 10.7243H52.1732V12.622H49.4677C48.8577 12.622 48.3625 13.1172 48.3625 13.7272V16.4368H46.4648V13.7272C46.4648 13.1158 45.9696 12.622 45.3597 12.622H42.65V10.7243ZM2.71643 14.8323H5.42192V17.542C5.42192 18.1533 5.91709 18.6471 6.52707 18.6471H10.6406C11.2506 18.6471 11.7458 18.152 11.7458 17.542V14.8323H14.4513C15.0626 14.8323 15.5564 14.3372 15.5564 13.7272V9.61779C15.5564 9.00642 15.0613 8.51263 14.4513 8.51263H11.7458V5.80299C11.7458 5.19163 11.2506 4.69784 10.6406 4.69784H6.52707C5.91709 4.69784 5.42192 5.19301 5.42192 5.80299V8.51263H2.71643C2.10507 8.51263 1.61127 9.00781 1.61127 9.61779V13.7272C1.61127 14.3372 2.10645 14.8323 2.71643 14.8323ZM3.82297 10.7243H6.52845C7.13982 10.7243 7.63361 10.2291 7.63361 9.61917V6.90953H9.53547V9.61917C9.53547 10.2305 10.0306 10.7243 10.6406 10.7243H13.3461V12.622H10.6406C10.0293 12.622 9.53547 13.1172 9.53547 13.7272V16.4368H7.63361V13.7272C7.63361 13.1158 7.13843 12.622 6.52845 12.622H3.82297V10.7243Z" fill="white"/>
</svg>
