<svg width="10" height="17" viewBox="0 0 10 17" fill="none" xmlns="http://www.w3.org/2000/svg">
<path d="M1.60573 1.53583C1.60648 1.53621 1.61452 1.53989 1.6277 1.55281L8.01369 7.80898C8.40698 8.19431 8.40691 8.80565 8.01369 9.19102L1.6277 15.4472C1.61456 15.4601 1.6064 15.4638 1.60573 15.4642C1.60475 15.4646 1.60368 15.4648 1.60174 15.4652C1.59518 15.4662 1.57698 15.4666 1.55381 15.4572C1.545 15.4536 1.53919 15.4492 1.53483 15.4462L1.53683 15.4452L5.68497 11.3819C7.30593 9.79368 7.306 7.20628 5.68497 5.61807L1.53583 1.55381C1.53112 1.54845 1.53372 1.54693 1.53383 1.55281C1.53819 1.54982 1.5449 1.54644 1.55381 1.54282C1.57709 1.53341 1.59525 1.53373 1.60174 1.53483C1.6037 1.53518 1.60466 1.53531 1.60573 1.53583Z" fill="#003CFF" stroke="#003CFF" stroke-width="3"/>
</svg>
