<svg width="68" height="66" viewBox="0 0 68 66" fill="none" xmlns="http://www.w3.org/2000/svg">
<path d="M65.4102 56.6512H65.3677V36.2591C65.3677 35.7089 64.9218 35.263 64.3716 35.263C63.8213 35.263 63.3755 35.7089 63.3755 36.2591V56.6512H4.62453V20.3469C4.62453 19.7244 5.13095 19.218 5.75344 19.218H25.0535C25.1843 19.8981 25.3596 20.5634 25.577 21.2102H8.94094C7.65943 21.2102 6.61672 22.2529 6.61672 23.5344V52.2523C6.61672 53.5338 7.65943 54.5765 8.94094 54.5765H18.7305C19.2808 54.5765 19.7266 54.1307 19.7266 53.5804C19.7266 53.0302 19.2808 52.5843 18.7305 52.5843H8.94094C8.75779 52.5843 8.60891 52.4354 8.60891 52.2523V23.5344C8.60891 23.3512 8.75779 23.2023 8.94094 23.2023H26.4066C28.5251 27.4251 32.5397 30.5702 37.4571 31.4489C37.4915 31.455 37.5154 31.4817 37.5154 31.5139V36.2338C37.5154 37.2325 38.2306 38.0667 39.1756 38.2529V41.5556C39.1756 42.8371 38.1329 43.8798 36.8513 43.8798H33.9336C32.6521 43.8798 31.6094 42.8371 31.6094 41.5556V39.6909C31.6094 37.3107 29.6731 35.3745 27.293 35.3745H24.3751C21.9949 35.3745 20.0587 37.3107 20.0587 39.6909V41.0581C17.7878 41.5206 16.0739 43.533 16.0739 45.9384C16.0739 48.6847 18.3081 50.9189 21.0544 50.9189C23.8007 50.9189 26.0348 48.6847 26.0348 45.9384C26.0348 43.5333 24.3213 41.521 22.0509 41.0582V39.6909C22.0509 38.4094 23.0936 37.3667 24.3751 37.3667H27.293C28.5745 37.3667 29.6172 38.4094 29.6172 39.6909V41.5556C29.6172 43.9357 31.5535 45.872 33.9336 45.872H36.8515C39.2316 45.872 41.1679 43.9357 41.1679 41.5556V38.2529C42.1129 38.0667 42.828 37.2325 42.828 36.2338V31.5106C42.828 31.4784 42.852 31.4517 42.8862 31.4455C46.4004 30.8098 49.6144 28.9279 51.9363 26.1465C52.6956 25.237 53.3435 24.248 53.8735 23.2025H59.0592C59.2423 23.2025 59.3912 23.3514 59.3912 23.5345V52.2524C59.3912 52.4356 59.2423 52.5845 59.0592 52.5845H23.379C22.8287 52.5845 22.3829 53.0303 22.3829 53.5805C22.3829 54.1308 22.8287 54.5766 23.379 54.5766H59.0591C60.3406 54.5766 61.3833 53.5339 61.3833 52.2524V23.5344C61.3833 22.2529 60.3406 21.2102 59.0591 21.2102H54.7164C54.9401 20.5594 55.1214 19.894 55.2581 19.218H62.2466C62.8691 19.218 63.3755 19.7244 63.3755 20.3469V31.6107C63.3755 32.1609 63.8213 32.6068 64.3716 32.6068C64.9218 32.6068 65.3677 32.1609 65.3677 31.6107V20.3469C65.3677 18.6259 63.9675 17.2258 62.2466 17.2258H55.529C55.5551 16.8594 55.5689 16.4915 55.5689 16.1224V15.0754C55.5689 14.0767 54.8537 13.2425 53.9087 13.0563V5.41875C53.9087 3.59005 52.4216 2.10242 50.5937 2.10242H49.3895C48.9737 0.881211 47.8163 0 46.4562 0C44.7477 0 43.3577 1.39002 43.3577 3.09852C43.3577 4.80702 44.7477 6.19703 46.4562 6.19703C47.8163 6.19703 48.9737 5.31582 49.3895 4.09461H50.5937C51.3231 4.09461 51.9165 4.68868 51.9165 5.41875V13.0564C50.9716 13.2426 50.2564 14.0768 50.2564 15.0755V16.2921C50.2564 16.6069 50.2399 16.9181 50.2111 17.2258H30.1445C30.1073 16.8673 30.0873 16.505 30.0873 16.1394V15.0754C30.0873 14.0767 29.3721 13.2425 28.4272 13.0563V5.41875C28.4272 4.68868 29.0213 4.09461 29.7513 4.09461H30.9551C31.371 5.31582 32.5283 6.19703 33.8883 6.19703C35.5968 6.19703 36.9868 4.80702 36.9868 3.09852C36.9868 1.39002 35.5968 0 33.8883 0C32.5283 0 31.371 0.881211 30.9551 2.10242H29.7513C27.9226 2.10242 26.435 3.59005 26.435 5.41875V13.0564C25.49 13.2426 24.7748 14.0768 24.7748 15.0755V16.2921C24.7748 16.6054 24.7851 16.9166 24.8035 17.2258H5.75344C4.03245 17.2258 2.63234 18.6259 2.63234 20.3469V56.6512H2.58984C1.16184 56.6512 0 57.813 0 59.241V60.9676C0 63.3477 1.93627 65.284 4.31641 65.284H63.6836C66.0637 65.284 68 63.3477 68 60.9676V59.241C68 57.813 66.8382 56.6512 65.4102 56.6512ZM24.0426 45.9385C24.0426 47.5862 22.702 48.9268 21.0544 48.9268C19.4067 48.9268 18.0661 47.5862 18.0661 45.9385C18.0661 44.2908 19.4067 42.9502 21.0544 42.9502C22.702 42.9502 24.0426 44.2907 24.0426 45.9385ZM46.4561 4.20484C45.8461 4.20484 45.3498 3.70852 45.3498 3.09852C45.3498 2.48851 45.8461 1.99219 46.4561 1.99219C47.0661 1.99219 47.5624 2.48851 47.5624 3.09852C47.5624 3.70852 47.0661 4.20484 46.4561 4.20484ZM33.8883 1.99219C34.4983 1.99219 34.9946 2.48851 34.9946 3.09852C34.9946 3.70852 34.4983 4.20484 33.8883 4.20484C33.2783 4.20484 32.7821 3.70852 32.7821 3.09852C32.7821 2.48851 33.2783 1.99219 33.8883 1.99219ZM42.5315 29.4852C41.5489 29.6629 40.8357 30.5147 40.8357 31.5106V36.2338C40.8357 36.2703 40.8058 36.3002 40.7693 36.3002H39.574C39.5375 36.3002 39.5076 36.2703 39.5076 36.2338V31.5139C39.5076 30.5155 38.7924 29.6634 37.8072 29.4877C31.41 28.3447 26.7669 22.7951 26.7669 16.2921V15.0755C26.7669 15.039 26.7968 15.0091 26.8333 15.0091H28.0286C28.0651 15.0091 28.095 15.039 28.095 15.0755V16.1395C28.095 19.4673 29.402 22.5837 31.775 24.9146C34.1005 27.1987 37.1567 28.4277 40.3912 28.3668C43.5665 28.3098 46.5457 27.0272 48.7798 24.7552C51.0165 22.4804 52.2483 19.4748 52.2483 16.2921V15.0755C52.2483 15.039 52.2782 15.0091 52.3147 15.0091H53.51C53.5465 15.0091 53.5764 15.039 53.5764 15.0755V16.1225C53.5766 22.7076 48.9314 28.3273 42.5315 29.4852ZM32.8893 23.2023H47.4867C45.6842 25.1093 43.1546 26.3246 40.3555 26.3748C37.6692 26.4274 35.1122 25.3997 33.1711 23.4932C33.0746 23.3982 32.9817 23.3004 32.8893 23.2023ZM49.8173 19.218C49.6028 19.9167 49.3118 20.5831 48.9576 21.2102H31.4175C31.059 20.5778 30.7683 19.9114 30.5526 19.218H49.8173ZM28.4176 58.6434H39.5824V59.9715H28.4176V58.6434ZM66.0078 60.9676C66.0078 62.2491 64.9651 63.2918 63.6836 63.2918H4.31641C3.0349 63.2918 1.99219 62.2491 1.99219 60.9676V59.241C1.99219 58.9115 2.26034 58.6434 2.58984 58.6434H26.4254V60.1707C26.4254 61.1594 27.2297 61.9637 28.2184 61.9637H39.7816C40.7703 61.9637 41.5746 61.1594 41.5746 60.1707V58.6434H65.4102C65.7397 58.6434 66.0078 58.9115 66.0078 59.241V60.9676Z" fill="white"/>
</svg>
