<svg width="17" height="10" viewBox="0 0 17 10" fill="none" xmlns="http://www.w3.org/2000/svg">
<path d="M1.53583 1.60573C1.53621 1.60648 1.53989 1.61452 1.55281 1.6277L7.80898 8.01369C8.19431 8.40698 8.80565 8.40691 9.19102 8.01369L15.4472 1.6277C15.4601 1.61456 15.4638 1.6064 15.4642 1.60573C15.4646 1.60476 15.4648 1.60368 15.4652 1.60174C15.4662 1.59518 15.4666 1.57698 15.4572 1.55381C15.4536 1.545 15.4492 1.53919 15.4462 1.53483L15.4452 1.53683L11.3819 5.68497C9.79368 7.30593 7.20628 7.306 5.61807 5.68497L1.55381 1.53583C1.54845 1.53112 1.54693 1.53372 1.55281 1.53383C1.54982 1.53819 1.54644 1.5449 1.54282 1.55381C1.53341 1.57709 1.53373 1.59525 1.53483 1.60174C1.53518 1.6037 1.53531 1.60466 1.53583 1.60573Z" fill="#FEDC0B" stroke="#FEDC0B" stroke-width="3"/>
</svg>
