<svg width="134" height="96" viewBox="0 0 134 96" fill="none" xmlns="http://www.w3.org/2000/svg">
<path d="M96.2851 41.8641C96.7089 45.1228 94.1374 48.0036 90.8332 48.0036H82.1131C79.4482 48.0036 77.1352 46.1068 76.6971 43.4898C74.4344 29.8846 62.5034 19.4738 48.1662 19.4738C33.8289 19.4738 21.8907 29.8846 19.6352 43.4898C19.2043 46.0997 16.8913 48.0036 14.2192 48.0036H5.49906C2.19488 48.0036 -0.383819 45.1228 0.0471613 41.8641C1.41912 31.3892 6.203 21.7057 13.8529 14.1115C23.0184 5.01283 35.2008 0 48.1662 0C61.1315 0 73.3139 5.01283 82.4794 14.1115C90.1293 21.7057 94.906 31.3892 96.2779 41.8641H96.2851ZM37.7149 54.1359C37.2911 50.8772 39.8626 47.9964 43.1668 47.9964H51.8869C54.5518 47.9964 56.8648 49.8932 57.3029 52.5101C59.5656 66.1154 71.4966 76.5262 85.8338 76.5262C100.171 76.5262 112.109 66.1154 114.365 52.5101C114.796 49.9003 117.109 47.9964 119.781 47.9964H128.501C131.805 47.9964 134.384 50.8772 133.953 54.1359C132.581 64.6108 127.797 74.2943 120.147 81.8885C110.982 90.9872 98.7992 96 85.8338 96C72.8757 96 60.6861 90.9872 51.5206 81.8885C43.8707 74.2943 39.094 64.6108 37.722 54.1359H37.7149Z" fill="#0DFFC0"/>
</svg>
