<svg width="17" height="10" viewBox="0 0 17 10" fill="none" xmlns="http://www.w3.org/2000/svg">
<path d="M1.53583 8.23637C1.53621 8.23563 1.53989 8.22759 1.55281 8.2144L7.80898 1.82842C8.19431 1.43512 8.80565 1.43519 9.19102 1.82842L15.4472 8.2144C15.4601 8.22754 15.4638 8.2357 15.4642 8.23637C15.4646 8.23735 15.4648 8.23842 15.4652 8.24037C15.4662 8.24693 15.4666 8.26513 15.4572 8.2883C15.4536 8.2971 15.4492 8.30291 15.4462 8.30727L15.4452 8.30527L11.3819 4.15713C9.79368 2.53617 7.20628 2.53611 5.61807 4.15713L1.55381 8.30627C1.54845 8.31099 1.54693 8.30838 1.55281 8.30827C1.54982 8.30391 1.54644 8.29721 1.54282 8.2883C1.53341 8.26502 1.53373 8.24685 1.53483 8.24037C1.53518 8.2384 1.53531 8.23744 1.53583 8.23637Z" fill="#003CFF" stroke="#0DFFC0" stroke-width="3"/>
</svg>
