<svg width="51" height="44" viewBox="0 0 51 44" fill="none" xmlns="http://www.w3.org/2000/svg">
<path d="M7.4268 43.4916C7.6632 43.752 7.9896 43.884 8.3148 43.884C8.472 43.884 8.6268 43.8468 8.7744 43.7856C8.79 43.7796 8.8032 43.7652 8.8188 43.758C8.9244 43.7076 9.03 43.6548 9.1212 43.572L9.1344 43.56C9.1416 43.5528 9.144 43.5432 9.1512 43.536C9.1584 43.5288 9.168 43.5276 9.1752 43.5204L14.262 38.4324C14.7312 37.9632 14.7312 37.2036 14.262 36.7356C11.256 33.7284 9.6 29.7384 9.6 25.5C9.6 21.12 11.3808 17.1492 14.2548 14.2716C14.2572 14.2692 14.262 14.268 14.2644 14.2656C14.2668 14.2632 14.268 14.2584 14.2704 14.256C17.1492 11.3808 21.12 9.6 25.5 9.6C29.88 9.6 33.8508 11.3808 36.7296 14.2548C36.732 14.2572 36.7332 14.262 36.7356 14.2644C36.738 14.2668 36.7428 14.268 36.7452 14.2704C37.758 15.2844 38.6268 16.44 39.3372 17.6964L23.6676 20.1252C23.622 20.1324 23.586 20.1588 23.5428 20.1708C23.4996 20.1828 23.4552 20.1768 23.412 20.1936C23.352 20.2176 23.3016 20.256 23.2416 20.2812C23.232 20.2872 23.2212 20.2908 23.2116 20.2968C22.0944 20.7876 21.2184 21.5976 20.6316 22.5816C20.5512 22.6896 20.4828 22.8 20.442 22.9224C19.728 24.3264 19.5732 26.0076 20.1948 27.5856C20.7528 29.0016 21.828 30.1164 23.2236 30.7248C23.9532 31.0428 24.726 31.2012 25.4988 31.2012C26.1588 31.2012 26.8164 31.074 27.4524 30.8412C27.4752 30.8352 27.498 30.8292 27.522 30.8208C27.5424 30.8124 27.5652 30.81 27.5856 30.8028C27.612 30.792 27.6288 30.7704 27.654 30.7584C27.7092 30.7332 27.7656 30.7152 27.8172 30.6804L40.9512 21.8196C41.2332 23.0028 41.3976 24.2292 41.3976 25.4976C41.3976 29.736 39.7416 33.726 36.7332 36.7332C36.264 37.2012 36.264 37.9608 36.7332 38.43L41.82 43.518C41.8272 43.5252 41.8368 43.5276 41.844 43.5336C41.8512 43.5408 41.8536 43.5504 41.8608 43.5576L41.874 43.5696C41.97 43.6572 42.0804 43.7148 42.192 43.7652C42.2016 43.77 42.21 43.7784 42.2196 43.782C42.3648 43.8432 42.5172 43.8792 42.672 43.8792C42.9624 43.8792 43.242 43.7568 43.4688 43.5504C43.4832 43.5372 43.5012 43.5336 43.5156 43.5192L43.5168 43.518C43.5192 43.5156 43.5204 43.5144 43.5228 43.512C43.5348 43.5 43.5516 43.4964 43.5624 43.4832C43.5744 43.47 43.5768 43.4532 43.5888 43.44C48.3672 38.64 51 32.2752 51 25.5C51 11.4396 39.5616 0 25.5 0C18.4692 0 12.0936 2.8596 7.4772 7.4772C7.47 7.4844 7.4604 7.4868 7.4532 7.494C7.4448 7.5036 7.4424 7.5156 7.434 7.524C2.8428 12.138 0 18.492 0 25.5C0 32.2596 2.622 38.61 7.3776 43.4076C7.398 43.434 7.404 43.4664 7.4268 43.4916ZM28.7184 27.18C28.4508 27.246 28.2204 27.4008 28.05 27.63L26.6196 28.5948C25.824 28.884 24.9648 28.8636 24.1848 28.524C23.376 28.1724 22.7532 27.5268 22.4304 26.7072C21.7752 25.0428 22.5756 23.1672 24.21 22.47L39.1272 20.1576L28.7184 27.18ZM11.7456 37.5564L8.3484 40.9548C4.7724 37.0068 2.7264 32.0184 2.4552 26.7H7.254C7.5144 30.7308 9.0696 34.5156 11.7456 37.5564ZM7.2612 24.3H2.4612C2.7444 18.8364 4.9236 13.8792 8.3664 10.062L11.7588 13.4544C9.1776 16.3944 7.5312 20.1588 7.2612 24.3ZM37.5456 11.7576C34.6056 9.1776 30.8424 7.5312 26.7 7.26V2.46C32.1636 2.7432 37.1208 4.9224 40.9368 8.364L37.5456 11.7576ZM24.3 7.2612C20.1576 7.5324 16.3944 9.1788 13.4544 11.7588L10.0608 8.3664C13.878 4.9236 18.8352 2.7432 24.3 2.4612V7.2612ZM43.746 26.7H48.5448C48.2724 32.0184 46.2276 37.0068 42.6516 40.9548L39.2544 37.5564C41.9304 34.5156 43.4856 30.7308 43.746 26.7ZM48.5388 24.3H43.7388C43.6512 22.956 43.4256 21.6492 43.062 20.3988L44.9208 19.1448C45.3864 18.8304 45.5712 18.2352 45.366 17.712C45.1608 17.1876 44.6148 16.884 44.0652 16.9644L41.8404 17.3088C41.1372 15.912 40.2636 14.6196 39.2412 13.4544L42.6324 10.0608C46.0764 13.8792 48.2568 18.8364 48.5388 24.3Z" fill="white"/>
</svg>
